<svg width="161" height="160" viewBox="0 0 161 160" fill="none" xmlns="http://www.w3.org/2000/svg">
<path d="M122.057 9.62124C127.461 17.352 121.13 29.8752 129.137 35.6733C136.927 41.3333 146.512 32.0642 153.848 36.9354C164.754 44.1535 162.762 77.2066 146.827 97.7366C142.035 103.909 138.031 106.315 136.257 113.297C132.45 128.285 145.821 137.219 143.277 144.634C137.538 161.319 49.3639 175.321 13.9837 125.149C-2.54291 101.72 -5.00809 67.8586 9.74355 42.1616C36.4266 -4.3021 109.948 -7.7139 122.057 9.62124Z" fill="#F4F7FA"/>
<path d="M95.1177 109.037C94.25 108.662 92.7117 107.085 92.475 106.513C90.9171 102.667 87.5447 95.6659 89.0238 91.5244C89.2802 90.8144 92.6723 91.0905 93.3231 90.5581C95.5319 90.2031 96.3207 90.2228 98.2534 88.8423C103.953 84.7994 97.2871 72.158 109.396 71.9016C118.251 71.7241 124.305 76.4967 127.086 63.6383C129.867 50.7799 146.531 30.7035 157.299 43.3647C163.472 50.6221 152.606 59.1024 154.243 68.1545C155.801 76.7531 150.811 82.0187 141.522 84.2078C132.233 86.3968 135.487 91.1103 135.744 98.9199C136.04 108.307 122.412 106 116.2 104.403C111.171 103.081 97.5829 103.16 95.1177 109.037Z" fill="url(#paint0_linear_572_1572)"/>
<mask id="mask0_572_1572" style="mask-type:luminance" maskUnits="userSpaceOnUse" x="88" y="39" width="72" height="71">
<path d="M95.1177 109.037C94.25 108.662 92.7117 107.085 92.475 106.513C90.9171 102.667 87.5447 95.6659 89.0238 91.5244C89.2802 90.8144 92.6723 91.0905 93.3231 90.5581C95.5319 90.2031 96.3207 90.2228 98.2534 88.8423C103.953 84.7994 97.2871 72.158 109.396 71.9016C118.251 71.7241 124.305 76.4967 127.086 63.6383C129.867 50.7799 146.531 30.7035 157.299 43.3647C163.472 50.6221 152.606 59.1024 154.243 68.1545C155.801 76.7531 150.811 82.0187 141.522 84.2078C132.233 86.3968 135.487 91.1103 135.744 98.9199C136.04 108.307 122.412 106 116.2 104.403C111.171 103.081 97.5829 103.16 95.1177 109.037Z" fill="white"/>
</mask>
<g mask="url(#mask0_572_1572)">
<path d="M90.7396 99.3933L90.7002 99.1961C121.071 93.9501 145.033 71.2508 154.815 38.4738L155.012 38.5329C150.377 54.0734 142.232 67.839 131.445 78.3899C120.125 89.4931 106.043 96.7506 90.7396 99.3933Z" fill="#FCFDFE"/>
<path d="M136.277 102.785C129.315 98.0325 116.476 94.2262 107.641 94.3051V94.1079C116.516 94.029 129.414 97.8352 136.395 102.628L136.277 102.785Z" fill="#FCFDFE"/>
<path d="M96.6956 98.3086L96.6167 98.1311C100.738 96.1195 103.697 92.116 105.412 86.1996C106.655 81.8609 107.227 76.6347 107.069 70.6394H107.266C107.424 76.6544 106.852 81.9201 105.59 86.2588C103.874 92.2147 100.877 96.2773 96.6956 98.3086Z" fill="#FCFDFE"/>
<path d="M132.924 76.8517L132.825 76.6742C140.418 72.4933 149.47 73.4202 155.742 74.9387L155.702 75.136C149.47 73.6371 140.457 72.7102 132.924 76.8517Z" fill="#FCFDFE"/>
<path d="M145.092 61.1929L144.895 61.114C148.287 51.9632 145.289 42.1617 143.218 37.1327L143.396 37.0538C145.486 42.1222 148.504 51.9632 145.092 61.1929Z" fill="#FCFDFE"/>
</g>
<path d="M95.8471 95.2911C94.861 95.2122 92.7903 94.1867 92.3564 93.6937C89.4968 90.4397 83.7381 84.681 83.7579 80.0859C83.7579 79.297 87.2091 78.3899 87.6627 77.6404C89.7137 76.5163 90.5026 76.2599 91.9423 74.2484C96.1824 68.2728 85.2172 58.0768 97.0895 53.6395C105.787 50.3854 113.419 53.0281 111.723 39.3611C110.027 25.6745 119.552 0.0760417 134.58 8.8718C143.198 13.9205 135.389 26.0492 140.122 34.4308C144.638 42.3982 141.522 49.3205 133.101 54.7044C124.68 60.0884 129.531 63.6185 132.47 71.2507C136.02 80.4212 121.741 82.8666 115.036 83.4188C109.652 83.8527 96.2613 88.645 95.8471 95.2911Z" fill="url(#paint1_linear_572_1572)"/>
<mask id="mask1_572_1572" style="mask-type:luminance" maskUnits="userSpaceOnUse" x="83" y="7" width="60" height="89">
<path d="M95.8471 95.2911C94.861 95.2122 92.7903 94.1867 92.3564 93.6937C89.4968 90.4397 83.7381 84.681 83.7579 80.0859C83.7579 79.297 87.2091 78.3899 87.6627 77.6404C89.7137 76.5163 90.5026 76.2599 91.9423 74.2484C96.1824 68.2728 85.2172 58.0768 97.0895 53.6395C105.787 50.3854 113.419 53.0281 111.723 39.3611C110.027 25.6745 119.552 0.0760417 134.58 8.8718C143.198 13.9205 135.389 26.0492 140.122 34.4308C144.638 42.3982 141.522 49.3205 133.101 54.7044C124.68 60.0884 129.531 63.6185 132.47 71.2507C136.02 80.4212 121.741 82.8666 115.036 83.4188C109.652 83.8527 96.2613 88.645 95.8471 95.2911Z" fill="white"/>
</mask>
<g mask="url(#mask1_572_1572)">
<path d="M88.1953 87.2842L88.0967 87.1067C116.298 71.4282 132.154 40.7022 130.478 4.92749H130.695C131.484 21.8879 128.21 38.3159 121.189 52.4759C113.813 67.3261 102.414 79.3759 88.1953 87.2842Z" fill="#FCFDFE"/>
<path d="M134.383 74.8794C125.863 72.5917 111.841 73.2622 103.144 76.3979L103.065 76.2007C111.802 73.0453 125.863 72.3748 134.423 74.6625L134.383 74.8794Z" fill="#FCFDFE"/>
<path d="M93.6973 84.1288L93.5396 83.9908C96.9316 80.5789 98.4699 75.5894 98.0952 69.1602C97.8388 64.4468 96.5767 59.0629 94.3481 53.2056L94.5453 53.1267C96.7739 59.0234 98.036 64.4074 98.2924 69.1602C98.6868 75.6289 97.1289 80.6776 93.6973 84.1288Z" fill="#FCFDFE"/>
<path d="M122.096 50.4051L121.938 50.2671C127.993 43.5026 137.282 41.2938 143.987 40.6233L144.007 40.8402C137.341 41.491 128.111 43.6998 122.096 50.4051Z" fill="#FCFDFE"/>
<path d="M128.703 30.7034H128.486C128.664 20.4876 122.333 11.8299 118.527 7.58983L118.685 7.45178C122.511 11.7116 128.881 20.4088 128.703 30.7034Z" fill="#FCFDFE"/>
</g>
<path d="M104.13 23.229L130.991 69.6138C131.484 70.4619 130.833 71.5071 129.847 71.4479L55.9706 70.4027L36.4858 28.8694L92.0214 20.4286L104.13 23.229Z" fill="url(#paint2_linear_572_1572)"/>
<path d="M103.322 23.229L130.183 69.6138C130.676 70.4619 130.025 71.5071 129.039 71.4479L55.1623 70.4027L35.6973 28.8694L91.2328 20.4286L103.322 23.229Z" fill="url(#paint3_linear_572_1572)"/>
<path d="M102.908 24.0178L128.388 70.4618L57.5093 74.9188L42.4224 31.9458L102.908 24.0178Z" fill="url(#paint4_linear_572_1572)"/>
<path d="M44.0194 28.8694L93.4611 22.8938L102.908 24.0179L121.406 66.9712L36.8408 71.448L44.0194 28.8694Z" fill="url(#paint5_linear_572_1572)"/>
<path d="M44.0194 28.8694L93.4611 22.8938L100.285 23.7024L114.405 69.5942L36.8408 71.448L44.0194 28.8694Z" fill="url(#paint6_linear_572_1572)"/>
<path d="M44.0194 28.8694L93.4611 22.8938L97.5237 23.3868L105.314 68.5292L36.8408 71.448L44.0194 28.8694Z" fill="url(#paint7_linear_572_1572)"/>
<path d="M93.4611 22.8938L87.7616 67.9967L42.915 70.4225L77.0528 26.7198L93.4611 22.8938Z" fill="url(#paint8_linear_572_1572)"/>
<path d="M52.9928 68.0164L91.8835 21.2174L36.3479 28.8693L3.41313 70.5013C2.21012 71.9804 3.35396 74.1695 5.24722 74.0314L47.7666 70.6788C49.7782 70.5013 51.6715 69.5546 52.9928 68.0164Z" fill="url(#paint9_linear_572_1572)"/>
<path d="M51.9279 68.0164L90.8185 21.2174L35.283 28.8693L2.34818 70.5013C1.14518 71.9804 2.28902 74.1695 4.18228 74.0314L46.7017 70.6788C48.733 70.5013 50.6065 69.5546 51.9279 68.0164Z" fill="url(#paint10_linear_572_1572)"/>
<path d="M35.2832 28.8693L91.8837 21.2174L103.973 23.229V21.4935C100.778 19.1072 96.538 18.8311 91.8837 19.4819L35.2832 27.7847V28.8693Z" fill="url(#paint11_linear_572_1572)"/>
<path d="M73.9764 29.5201L52.4603 54.6453L37.5903 56.0652L57.3907 32.5375L73.9764 29.5201Z" fill="white"/>
<path d="M54.4521 137.041L12.9582 133.728C8.22504 133.294 4.99072 129.725 4.99072 125.011V124.952C4.99072 120.239 8.75752 116.59 13.4907 116.807L56.1876 118.01L54.4521 137.041Z" fill="url(#paint12_linear_572_1572)"/>
<path d="M128.388 131.736L55.6157 136.134C51.2967 136.391 47.7666 133.334 47.7666 129.291V126.55C47.7666 122.507 51.2967 119.095 55.6157 118.898L128.388 115.861V131.736Z" fill="url(#paint13_linear_572_1572)"/>
<path d="M129.058 132.545L56.1875 137.022C50.5471 137.377 45.9126 133.354 45.9126 128.068V128.009C45.9126 122.724 50.5471 118.247 56.1875 118.01L129.058 115.032C129.512 115.013 129.886 115.368 129.886 115.841C129.886 116.314 129.512 116.709 129.058 116.728L56.1875 119.844C51.6515 120.042 47.9242 123.651 47.9242 127.891V127.95C47.9242 132.19 51.6515 135.424 56.1875 135.168L129.058 130.849C129.512 130.829 129.886 131.184 129.886 131.638C129.906 132.111 129.531 132.505 129.058 132.545Z" fill="url(#paint14_linear_572_1572)"/>
<path d="M54.9846 117.971L13.4907 116.807C8.75752 116.59 4.99072 110.674 4.99072 103.594V103.515C4.99072 96.4349 8.75752 90.6171 13.4907 90.5185L57.8836 89.0197L54.9846 117.971Z" fill="url(#paint15_linear_572_1572)"/>
<path d="M128.388 113.79L59.5009 116.511C53.0519 116.768 47.7666 112.054 47.7666 105.98V101.858C47.7666 95.784 53.0519 90.8142 59.5009 90.7353L128.388 89.9268V113.79Z" fill="url(#paint16_linear_572_1572)"/>
<path d="M129.058 115.032L56.1875 118.01C50.5471 118.247 45.9126 111.975 45.9126 104.047V103.968C45.9126 96.0405 50.5471 89.5521 56.1875 89.4929L129.058 88.7435C129.512 88.7435 129.886 89.2957 129.886 90.0057C129.886 90.7157 129.512 91.2876 129.058 91.2876L56.1875 92.2539C51.6515 92.3131 47.9242 97.559 47.9242 103.929V104.008C47.9242 110.378 51.6515 115.427 56.1875 115.249L129.058 112.488C129.512 112.468 129.886 113.021 129.886 113.731C129.886 114.441 129.531 115.012 129.058 115.032Z" fill="url(#paint17_linear_572_1572)"/>
<path d="M52.4798 88.8027L12.9975 89.6902C9.36878 89.769 6.46973 86.8897 6.46973 83.2807V80.8155C6.46973 77.1868 9.36878 74.0708 12.9975 73.8539L52.4798 71.3887V88.8027Z" fill="url(#paint18_linear_572_1572)"/>
<path d="M46.9382 89.5916L13.4907 90.5185C8.75752 90.6171 4.99072 86.87 4.99072 82.1566V82.0974C4.99072 77.384 8.75752 73.3214 13.4907 73.0059L46.9382 70.4026C47.5299 70.3632 54.3338 70.7971 54.3338 71.3295C54.3338 71.862 47.9835 72.2367 47.3918 72.2762L13.4907 74.7019C9.6647 74.9386 6.60788 78.2123 6.60788 82.0383V82.0974C6.60788 85.9037 9.6647 88.9408 13.4907 88.8422L46.9382 87.7378C47.5299 87.7181 54.3338 88.2505 54.3338 88.7633C54.3338 89.2761 47.5101 89.5719 46.9382 89.5916Z" fill="url(#paint19_linear_572_1572)"/>
<path d="M128.388 87.9153L47.7666 88.645V71.2704L128.388 72.0198V87.9153Z" fill="url(#paint20_linear_572_1572)"/>
<path d="M129.058 72.9269L46.9384 72.2564C46.3862 72.2564 45.9326 71.8423 45.9326 71.3295C45.9326 70.8167 46.3862 70.4026 46.9384 70.4026L129.058 71.2506C129.512 71.2506 129.887 71.645 129.887 72.0986C129.906 72.5522 129.532 72.9269 129.058 72.9269Z" fill="url(#paint21_linear_572_1572)"/>
<path d="M129.058 88.7435L46.9384 89.5915C46.3862 89.5915 45.9326 89.1773 45.9326 88.6646C45.9326 88.1518 46.3862 87.7377 46.9384 87.7377L129.058 87.0671C129.512 87.0671 129.887 87.4418 129.887 87.9152C129.906 88.3688 129.532 88.7435 129.058 88.7435Z" fill="url(#paint22_linear_572_1572)"/>
<path opacity="0.5" d="M43.8616 114.046L35.0462 113.533C32.9162 107.459 33.074 101.602 35.0462 94.4825L43.8616 94.5023C42.0867 101.779 42.3628 108.228 43.8616 114.046Z" fill="white"/>
<path opacity="0.3" d="M25.5799 90.3804L25.3038 79.3759L15.1867 90.5382C15.1867 90.5382 9.72391 93.4767 10.6508 98.6634L16.9025 96.1785L22.464 98.1112C22.464 98.0915 22.602 92.6484 25.5799 90.3804Z" fill="url(#paint23_linear_572_1572)"/>
<path d="M14.0428 80.0661L25.3037 79.3759C25.3037 79.3759 19.9986 83.399 22.4638 98.0718C22.4638 98.0718 17.6518 96.5335 15.5613 93.9303L10.6507 98.6437C10.6507 98.6437 7.65302 85.6078 14.0428 80.0661Z" fill="url(#paint24_linear_572_1572)"/>
<path d="M111.802 107.499C111.802 107.499 120.795 116.985 119.04 123.02C117.285 129.054 103.164 118.839 103.164 118.839L111.802 107.499Z" fill="url(#paint25_linear_572_1572)"/>
<path d="M108.252 101.76C108.982 101.641 111.21 100.655 111.822 98.7818C112.236 97.5 111.526 96.8097 112.058 95.5081C112.67 94.029 113.853 94.2262 114.957 92.7865C116.239 91.1102 116.456 88.3887 115.45 86.6137C114.642 85.1741 113.695 85.529 112.177 83.5766C110.836 81.8609 111.25 81.1509 110.303 80.2831C108.469 78.5871 106.083 80.4606 102.789 79.7112C98.2335 78.666 98.3124 74.0117 94.7231 73.7356C91.4099 73.4792 87.3473 77.0685 86.7359 80.5395C86.4993 81.92 86.8937 82.6694 86.2232 83.8724C85.1977 85.746 83.3833 85.2529 81.9239 87.1068C80.8195 88.507 80.2279 90.8538 81.1153 92.2541C82.1606 93.8909 84.4483 92.964 85.5132 94.5812C86.6571 96.3167 84.5666 98.2494 85.671 100.083C86.6965 101.819 89.635 102.016 91.331 101.937C93.3821 101.839 95.3542 101.247 97.3855 100.912C101.113 100.32 104.564 102.332 108.252 101.76Z" fill="url(#paint26_linear_572_1572)"/>
<path d="M93.2637 140.079L115.47 134.517L116.574 139.921L96.2416 149.308L80.1489 145.324L70.4263 135.799L93.2637 140.079Z" fill="url(#paint27_linear_572_1572)"/>
<path d="M114.484 111.837C115.233 110.023 110.126 105.073 103.716 103.239C99.0618 101.918 95.1373 102.647 93.0862 103.022C86.4401 104.205 82.2986 107.518 80.7406 108.919C82.0225 109.609 85.5329 111.719 87.2881 115.723C88.9644 119.588 87.7614 123.158 87.1501 125.228C86.5979 127.023 85.7696 129.764 83.3241 131.756C82.0225 132.801 80.5828 133.334 77.7232 134.399C74.3509 135.641 72.2407 135.996 72.2604 136.667C72.2801 137.535 75.7116 138.244 75.5933 138.777C75.5933 138.816 75.5539 138.816 75.5539 138.856C75.5144 139.231 79.3601 140.157 84.251 140.887C89.9505 141.735 92.8101 142.169 95.5317 141.715C99.7718 140.986 99.0618 139.684 103.322 138.954C108.272 138.106 110.52 139.645 115.016 137.929C115.766 137.633 118.803 136.47 118.704 135.267C118.606 133.768 113.616 134.28 109.278 130.455C107.365 128.758 106.438 127.003 106.122 126.333C105.708 125.465 103.972 121.028 105.708 116.196C105.807 115.92 105.885 115.782 106.004 115.585C108.075 111.936 113.774 113.534 114.484 111.837Z" fill="url(#paint28_linear_572_1572)"/>
<path d="M92.692 119.568C93.7569 121.639 90.0099 127.615 84.7837 128.127C81.9438 128.403 79.1631 127.023 77.4868 124.952C74.9032 121.738 75.6921 117.754 75.9879 116.354C77.6445 108.09 87.3475 104.659 88.2349 104.363C90.6015 108.031 90.5621 110.339 90.069 111.778C89.6549 112.962 88.5899 114.243 86.4206 116.788C84.5076 119.056 83.561 119.864 83.8371 120.554C84.1723 121.383 86.0064 121.442 87.17 121.205C89.3196 120.771 90.5029 119.036 90.8184 118.543C91.3904 118.622 92.3173 118.858 92.692 119.568Z" fill="url(#paint29_linear_572_1572)"/>
<path d="M95.8081 97.8746C95.8081 97.8746 95.3939 101.267 94.1318 102.036C92.8893 102.805 90.858 103.831 90.6411 104.107C90.4241 104.383 98.3916 105.231 102.336 103.239C101.034 102.963 100.679 102.864 100.679 102.864C100.324 102.766 99.6735 102.588 99.0029 102.194C98.5494 101.937 97.8197 101.444 97.1689 100.498L97.1886 98.6241L95.8081 97.8746Z" fill="url(#paint30_linear_572_1572)"/>
<path d="M96.4979 99.7087C96.4979 99.7087 97.6615 103.101 101.192 102.923C104.347 102.766 104.899 94.8967 102.907 93.3584C102.237 92.8456 100.817 92.5498 99.7125 92.8456C98.9434 93.0429 96.5374 94.6797 96.7937 97.4013C96.1429 96.9674 95.4527 96.9674 95.1766 97.283C94.8413 97.6774 95.2555 98.4663 95.3541 98.6635C95.7091 99.2748 96.2415 99.5904 96.4979 99.7087Z" fill="url(#paint31_linear_572_1572)"/>
<path d="M97.0308 147.553C101.448 145.186 104.702 142.78 106.911 140.946C111.27 137.357 113.262 134.655 117.679 133.59C118.468 133.393 122.964 132.308 124.404 134.3C126.002 136.509 122.886 141.124 122.511 141.676C116.871 150.018 102.533 149.624 98.0366 149.348C97.7013 148.756 97.366 148.145 97.0308 147.553Z" fill="url(#paint32_linear_572_1572)"/>
<path opacity="0.3" d="M124.404 134.3C123.99 133.708 123.3 133.413 122.531 133.255C122.787 134.142 122.807 134.99 122.491 135.72C121.604 137.712 119 137.101 117.166 139.447C115.372 141.755 116.614 143.964 115.017 144.93C113.202 146.015 110.934 143.471 108.982 144.693C107.661 145.522 108.075 147.099 106.517 147.947C105.452 148.539 104.407 148.263 103.184 148.105C101.784 147.928 99.8707 147.888 97.4844 148.401C97.6619 148.736 97.8394 149.052 98.0366 149.387C102.533 149.663 116.871 150.038 122.511 141.715C122.886 141.124 126.002 136.509 124.404 134.3Z" fill="url(#paint33_linear_572_1572)"/>
<path d="M100.364 148.795C100.364 148.795 101.172 148.223 102.355 148.618C103.539 149.012 105.393 149.328 105.393 149.9C105.393 150.472 103.519 150.827 102.237 150.59C100.995 150.373 100.028 149.288 100.364 148.795Z" fill="url(#paint34_linear_572_1572)"/>
<path d="M99.1803 147.809L101.35 148.5C101.35 148.5 101.705 149.091 101.231 149.446C100.758 149.821 99.1211 149.032 99.1211 149.032L99.1803 147.809Z" fill="url(#paint35_linear_572_1572)"/>
<path d="M69.1642 137.85C68.5332 141.558 76.5401 145.581 78.3742 146.508C82.1212 148.381 89.1421 151.024 99.5944 150.018C99.7325 149.19 99.8705 148.362 100.009 147.514C98.6281 147.04 96.577 146.271 94.2105 145.108C90.1676 143.116 88.6293 141.696 83.0087 138.304C76.7964 134.537 74.9821 134.064 73.1282 134.537C71.5505 134.931 69.4601 136.134 69.1642 137.85Z" fill="url(#paint36_linear_572_1572)"/>
<path d="M91.0156 122.704L93.6189 107.933L105.314 112.409L102.336 127.22L91.0156 122.704Z" fill="url(#paint37_linear_572_1572)"/>
<path d="M111.802 107.499L105.314 112.409L102.336 127.22L107.109 124.065L111.802 107.499Z" fill="url(#paint38_linear_572_1572)"/>
<path d="M108.429 119.233C108.429 119.233 109.849 117.912 110.007 116.373C110.165 114.835 109.08 113.593 108.035 113.297C106.99 112.981 106.438 113.455 107.128 114.953C107.858 116.472 108.962 117.438 108.429 119.233Z" fill="url(#paint39_linear_572_1572)"/>
<path d="M91.4102 122.842C91.4102 122.842 89.8719 121.659 89.5761 120.12C89.2803 118.602 90.2466 117.281 91.2721 116.866C92.2976 116.452 92.8893 116.866 92.3174 118.444C91.7454 120.022 90.7199 121.106 91.4102 122.842Z" fill="url(#paint40_linear_572_1572)"/>
<defs>
<linearGradient id="paint0_linear_572_1572" x1="155.709" y1="59.3425" x2="121.342" y2="85.2681" gradientUnits="userSpaceOnUse">
<stop offset="0.00359712" stop-color="#E38DDD"/>
<stop offset="1" stop-color="#9571F6"/>
</linearGradient>
<linearGradient id="paint1_linear_572_1572" x1="154.477" y1="9.02143" x2="84.4185" y2="95.7326" gradientUnits="userSpaceOnUse">
<stop stop-color="#FFC444"/>
<stop offset="0.9964" stop-color="#F36F56"/>
</linearGradient>
<linearGradient id="paint2_linear_572_1572" x1="34.1172" y1="9.14337" x2="115.034" y2="75.5232" gradientUnits="userSpaceOnUse">
<stop stop-color="#311944"/>
<stop offset="1" stop-color="#A03976"/>
</linearGradient>
<linearGradient id="paint3_linear_572_1572" x1="116.243" y1="30.7454" x2="86.011" y2="48.1816" gradientUnits="userSpaceOnUse">
<stop stop-color="#311944"/>
<stop offset="1" stop-color="#A03976"/>
</linearGradient>
<linearGradient id="paint4_linear_572_1572" x1="108.473" y1="48.2238" x2="21.6481" y2="52.0424" gradientUnits="userSpaceOnUse">
<stop stop-color="#D8DEE8"/>
<stop offset="0.9964" stop-color="#97A6B7"/>
</linearGradient>
<linearGradient id="paint5_linear_572_1572" x1="108.093" y1="45.2814" x2="19.4713" y2="49.179" gradientUnits="userSpaceOnUse">
<stop offset="0.00359712" stop-color="#EBEFF2"/>
<stop offset="1" stop-color="white"/>
</linearGradient>
<linearGradient id="paint6_linear_572_1572" x1="91.7068" y1="44.1012" x2="103.381" y2="39.3064" gradientUnits="userSpaceOnUse">
<stop offset="0.494" stop-color="#EBEFF2"/>
<stop offset="1" stop-color="white"/>
</linearGradient>
<linearGradient id="paint7_linear_572_1572" x1="82.3913" y1="46.2295" x2="101.286" y2="40.1993" gradientUnits="userSpaceOnUse">
<stop offset="0.494" stop-color="#EBEFF2"/>
<stop offset="1" stop-color="white"/>
</linearGradient>
<linearGradient id="paint8_linear_572_1572" x1="86.8018" y1="45.8384" x2="31.779" y2="48.2584" gradientUnits="userSpaceOnUse">
<stop stop-color="#D8DEE8"/>
<stop offset="0.9964" stop-color="#97A6B7"/>
</linearGradient>
<linearGradient id="paint9_linear_572_1572" x1="48.8925" y1="14.0224" x2="45.1297" y2="95.6628" gradientUnits="userSpaceOnUse">
<stop stop-color="#311944"/>
<stop offset="1" stop-color="#A03976"/>
</linearGradient>
<linearGradient id="paint10_linear_572_1572" x1="26.5784" y1="30.8427" x2="57.4927" y2="56.2032" gradientUnits="userSpaceOnUse">
<stop stop-color="#311944"/>
<stop offset="1" stop-color="#A03976"/>
</linearGradient>
<linearGradient id="paint11_linear_572_1572" x1="44.7977" y1="4.80306" x2="85.5559" y2="38.2388" gradientUnits="userSpaceOnUse">
<stop stop-color="#311944"/>
<stop offset="1" stop-color="#A03976"/>
</linearGradient>
<linearGradient id="paint12_linear_572_1572" x1="23.0701" y1="145.229" x2="34.5163" y2="119.195" gradientUnits="userSpaceOnUse">
<stop stop-color="#AA80F9"/>
<stop offset="0.9964" stop-color="#6165D7"/>
</linearGradient>
<linearGradient id="paint13_linear_572_1572" x1="99.4919" y1="148.034" x2="90.4481" y2="128.439" gradientUnits="userSpaceOnUse">
<stop offset="0.494" stop-color="#EBEFF2"/>
<stop offset="1" stop-color="white"/>
</linearGradient>
<linearGradient id="paint14_linear_572_1572" x1="45.9269" y1="126.034" x2="129.897" y2="126.034" gradientUnits="userSpaceOnUse">
<stop stop-color="#AA80F9"/>
<stop offset="0.9964" stop-color="#6165D7"/>
</linearGradient>
<linearGradient id="paint15_linear_572_1572" x1="38.3777" y1="81.0868" x2="19.8125" y2="143.622" gradientUnits="userSpaceOnUse">
<stop stop-color="#FFC444"/>
<stop offset="0.9964" stop-color="#F36F56"/>
</linearGradient>
<linearGradient id="paint16_linear_572_1572" x1="103.908" y1="128.392" x2="90.6436" y2="103.974" gradientUnits="userSpaceOnUse">
<stop offset="0.494" stop-color="#EBEFF2"/>
<stop offset="1" stop-color="white"/>
</linearGradient>
<linearGradient id="paint17_linear_572_1572" x1="45.9269" y1="103.384" x2="129.897" y2="103.384" gradientUnits="userSpaceOnUse">
<stop stop-color="#FFC444"/>
<stop offset="0.9964" stop-color="#F36F56"/>
</linearGradient>
<linearGradient id="paint18_linear_572_1572" x1="6.47497" y1="80.5306" x2="52.4891" y2="80.5306" gradientUnits="userSpaceOnUse">
<stop stop-color="#FF9085"/>
<stop offset="1" stop-color="#FB6FBB"/>
</linearGradient>
<linearGradient id="paint19_linear_572_1572" x1="3.34996" y1="80.1671" x2="23.6018" y2="80.3884" gradientUnits="userSpaceOnUse">
<stop stop-color="#AA80F9"/>
<stop offset="0.9964" stop-color="#6165D7"/>
</linearGradient>
<linearGradient id="paint20_linear_572_1572" x1="99.1443" y1="104.739" x2="87.3875" y2="78.8136" gradientUnits="userSpaceOnUse">
<stop offset="0.494" stop-color="#EBEFF2"/>
<stop offset="1" stop-color="white"/>
</linearGradient>
<linearGradient id="paint21_linear_572_1572" x1="45.9272" y1="71.6652" x2="129.897" y2="71.6652" gradientUnits="userSpaceOnUse">
<stop stop-color="#AA80F9"/>
<stop offset="0.9964" stop-color="#6165D7"/>
</linearGradient>
<linearGradient id="paint22_linear_572_1572" x1="45.9272" y1="88.3197" x2="129.897" y2="88.3197" gradientUnits="userSpaceOnUse">
<stop stop-color="#AA80F9"/>
<stop offset="0.9964" stop-color="#6165D7"/>
</linearGradient>
<linearGradient id="paint23_linear_572_1572" x1="21.2873" y1="93.9234" x2="17.4471" y2="88.2378" gradientUnits="userSpaceOnUse">
<stop stop-color="#FFC444"/>
<stop offset="0.9964" stop-color="#F36F56"/>
</linearGradient>
<linearGradient id="paint24_linear_572_1572" x1="20.339" y1="92.5195" x2="14.9164" y2="84.4913" gradientUnits="userSpaceOnUse">
<stop stop-color="#AA80F9"/>
<stop offset="0.9964" stop-color="#6165D7"/>
</linearGradient>
<linearGradient id="paint25_linear_572_1572" x1="111.676" y1="123.42" x2="113.522" y2="137.845" gradientUnits="userSpaceOnUse">
<stop stop-color="#FFC444"/>
<stop offset="0.0984598" stop-color="#FEBC46"/>
<stop offset="0.9964" stop-color="#F36F56"/>
</linearGradient>
<linearGradient id="paint26_linear_572_1572" x1="116.403" y1="77.3333" x2="88.7552" y2="95.6893" gradientUnits="userSpaceOnUse">
<stop stop-color="#444B8C"/>
<stop offset="0.9964" stop-color="#26264F"/>
</linearGradient>
<linearGradient id="paint27_linear_572_1572" x1="93.7573" y1="132.864" x2="93.2813" y2="142.266" gradientUnits="userSpaceOnUse">
<stop stop-color="#893976"/>
<stop offset="1" stop-color="#311944"/>
</linearGradient>
<linearGradient id="paint28_linear_572_1572" x1="96.6546" y1="126.585" x2="94.148" y2="146.173" gradientUnits="userSpaceOnUse">
<stop stop-color="#FFC444"/>
<stop offset="0.9964" stop-color="#F36F56"/>
</linearGradient>
<linearGradient id="paint29_linear_572_1572" x1="83.5243" y1="125.292" x2="81.0242" y2="144.83" gradientUnits="userSpaceOnUse">
<stop stop-color="#FFC444"/>
<stop offset="0.0984598" stop-color="#FEBC46"/>
<stop offset="0.9964" stop-color="#F36F56"/>
</linearGradient>
<linearGradient id="paint30_linear_572_1572" x1="96.2649" y1="93.0109" x2="96.5166" y2="104.966" gradientUnits="userSpaceOnUse">
<stop stop-color="#311944"/>
<stop offset="1" stop-color="#A03976"/>
</linearGradient>
<linearGradient id="paint31_linear_572_1572" x1="85.5857" y1="86.0609" x2="102.479" y2="99.181" gradientUnits="userSpaceOnUse">
<stop stop-color="#311944"/>
<stop offset="1" stop-color="#A03976"/>
</linearGradient>
<linearGradient id="paint32_linear_572_1572" x1="97.0355" y1="141.298" x2="124.859" y2="141.298" gradientUnits="userSpaceOnUse">
<stop stop-color="#893976"/>
<stop offset="1" stop-color="#311944"/>
</linearGradient>
<linearGradient id="paint33_linear_572_1572" x1="97.0356" y1="141.363" x2="124.859" y2="141.363" gradientUnits="userSpaceOnUse">
<stop stop-color="#893976"/>
<stop offset="1" stop-color="#311944"/>
</linearGradient>
<linearGradient id="paint34_linear_572_1572" x1="104.914" y1="152.124" x2="99.5592" y2="145.46" gradientUnits="userSpaceOnUse">
<stop stop-color="#AA80F9"/>
<stop offset="0.9964" stop-color="#6165D7"/>
</linearGradient>
<linearGradient id="paint35_linear_572_1572" x1="101.627" y1="150.542" x2="94.2482" y2="141.259" gradientUnits="userSpaceOnUse">
<stop stop-color="#FFC444"/>
<stop offset="0.9964" stop-color="#F36F56"/>
</linearGradient>
<linearGradient id="paint36_linear_572_1572" x1="85.742" y1="140.987" x2="79.6114" y2="153.738" gradientUnits="userSpaceOnUse">
<stop stop-color="#893976"/>
<stop offset="1" stop-color="#311944"/>
</linearGradient>
<linearGradient id="paint37_linear_572_1572" x1="93.6249" y1="139.969" x2="101.623" y2="99.1577" gradientUnits="userSpaceOnUse">
<stop stop-color="#FF9085"/>
<stop offset="1" stop-color="#FB6FBB"/>
</linearGradient>
<linearGradient id="paint38_linear_572_1572" x1="116.255" y1="111.991" x2="108.99" y2="116.241" gradientUnits="userSpaceOnUse">
<stop stop-color="#FF9085"/>
<stop offset="1" stop-color="#FB6FBB"/>
</linearGradient>
<linearGradient id="paint39_linear_572_1572" x1="110.226" y1="124.018" x2="107.385" y2="109.52" gradientUnits="userSpaceOnUse">
<stop stop-color="#311944"/>
<stop offset="1" stop-color="#A03976"/>
</linearGradient>
<linearGradient id="paint40_linear_572_1572" x1="90.0427" y1="127.76" x2="91.5886" y2="113.065" gradientUnits="userSpaceOnUse">
<stop stop-color="#311944"/>
<stop offset="1" stop-color="#A03976"/>
</linearGradient>
</defs>
</svg>
