<svg width="32" height="32" viewBox="0 0 32 32" fill="none" xmlns="http://www.w3.org/2000/svg">
<g id="clock-regular 2" clip-path="url(#clip0_576_1937)">
<path id="Vector" d="M29 16C29 19.4478 27.6304 22.7544 25.1924 25.1924C22.7544 27.6304 19.4478 29 16 29C12.5522 29 9.24558 27.6304 6.80761 25.1924C4.36964 22.7544 3 19.4478 3 16C3 12.5522 4.36964 9.24558 6.80761 6.80761C9.24558 4.36964 12.5522 3 16 3C19.4478 3 22.7544 4.36964 25.1924 6.80761C27.6304 9.24558 29 12.5522 29 16ZM0 16C0 20.2435 1.68571 24.3131 4.68629 27.3137C7.68687 30.3143 11.7565 32 16 32C20.2435 32 24.3131 30.3143 27.3137 27.3137C30.3143 24.3131 32 20.2435 32 16C32 11.7565 30.3143 7.68687 27.3137 4.68629C24.3131 1.68571 20.2435 0 16 0C11.7565 0 7.68687 1.68571 4.68629 4.68629C1.68571 7.68687 0 11.7565 0 16ZM14.5 7.5V16C14.5 16.5 14.75 16.9688 15.1687 17.25L21.1688 21.25C21.8563 21.7125 22.7875 21.525 23.25 20.8312C23.7125 20.1375 23.525 19.2125 22.8312 18.75L17.5 15.2V7.5C17.5 6.66875 16.8312 6 16 6C15.1687 6 14.5 6.66875 14.5 7.5Z" fill="#333333"/>
</g>
<defs>
<clipPath id="clip0_576_1937">
<rect width="32" height="32" fill="white"/>
</clipPath>
</defs>
</svg>
