<svg width="170" height="161" viewBox="0 0 170 161" fill="none" xmlns="http://www.w3.org/2000/svg">
<path d="M3.55423 87.7251C3.55423 87.7251 2.32158 152.677 93.9477 151.894C111.739 151.75 130.865 151.667 147.855 146.184C154.224 144.144 159.401 139.526 159.853 133.239C160.428 125.2 156.258 117.47 157.244 109.472C159.709 89.2092 192.99 34.4398 139.987 8.5702C86.9833 -17.2994 1.91071 17.2071 3.55423 87.7251Z" fill="#F4F7FA"/>
<mask id="mask0_572_1481" style="mask-type:luminance" maskUnits="userSpaceOnUse" x="73" y="65" width="88" height="81">
<path d="M73.6294 136.001L87.2089 145.648C87.2089 145.648 94.687 140.474 94.8513 133.177C95.1595 118.294 108.123 119.614 113.649 119.346C121.969 118.933 129.119 114.955 123.099 106.73C117.08 98.5057 133.618 91.8888 147.136 93.1875C160.366 94.4449 170.248 71.5848 141.856 66.2047C124.907 62.9891 117.306 78.0367 111.656 84.7154C106.007 91.3941 95.0567 84.4887 92.5298 95.7641C90.3727 105.39 92.4066 114.955 84.3328 116.893C76.259 118.81 71.7599 124.21 73.6294 136.001Z" fill="white"/>
</mask>
<g mask="url(#mask0_572_1481)">
<path d="M73.6298 136.001L87.2094 145.648C87.2094 145.648 94.6874 140.474 94.8517 133.177C95.1599 118.294 108.123 119.614 113.649 119.346C121.97 118.933 128.153 115.182 124.209 107.101C119.73 97.9491 133.639 91.8888 147.157 93.1875C160.387 94.4449 170.269 71.5848 141.877 66.2047C124.928 62.9891 117.327 78.0367 111.677 84.7154C106.028 91.3941 95.0777 84.4887 92.5508 95.7641C90.3937 105.39 92.4275 114.955 84.3537 116.893C76.2594 118.81 71.7603 124.21 73.6298 136.001Z" fill="url(#paint0_linear_572_1481)"/>
</g>
<mask id="mask1_572_1481" style="mask-type:luminance" maskUnits="userSpaceOnUse" x="73" y="65" width="88" height="81">
<path d="M73.6294 136.001L87.2089 145.648C87.2089 145.648 94.687 140.474 94.8513 133.177C95.1595 118.294 108.123 119.614 113.649 119.346C121.969 118.933 129.119 114.955 123.099 106.73C117.08 98.5057 133.618 91.8888 147.136 93.1875C160.366 94.4449 170.248 71.5848 141.856 66.2047C124.907 62.9891 117.306 78.0367 111.656 84.7154C106.007 91.3941 95.0567 84.4887 92.5298 95.7641C90.3727 105.39 92.4066 114.955 84.3328 116.893C76.259 118.81 71.7599 124.21 73.6294 136.001Z" fill="white"/>
</mask>
<g mask="url(#mask1_572_1481)">
<g opacity="0.5">
<path d="M78.6216 141.422L78.9503 141.567C79.0325 141.361 88.2772 121.593 103.336 104.751C117.203 89.2297 138.98 73.1102 164.002 84.4268L164.146 84.097C153.011 79.0674 141.568 78.9437 130.166 83.7672C121.045 87.6219 111.944 94.5892 103.069 104.504C87.9691 121.407 78.7038 141.237 78.6216 141.422Z" fill="#BEB8F2"/>
<path d="M125.462 85.9934L125.77 86.1583C131.296 75.8311 144.403 64.8854 144.547 64.7824L144.321 64.5144C144.198 64.6381 131.009 75.6043 125.462 85.9934Z" fill="#BEB8F2"/>
<path d="M133.146 83.0045C147.054 83.829 154.018 93.1256 154.08 93.208L154.367 93.0019C154.306 92.8988 147.239 83.4786 133.166 82.6541L133.146 83.0045Z" fill="#BEB8F2"/>
<path d="M94.0707 116.295C106.829 105.019 127.557 114.728 127.763 114.852L127.948 114.563C127.763 114.44 106.726 104.648 93.8447 116.047L94.0707 116.295Z" fill="#BEB8F2"/>
<path d="M98.0358 110.503L98.3645 110.647C102.699 100.67 97.5222 87.9929 97.4605 87.8693L97.1318 88.0136C97.1729 88.1166 102.309 100.649 98.0358 110.503Z" fill="#BEB8F2"/>
<path d="M80.4502 138.495C84.5795 133.507 95.0364 134.661 95.1391 134.682L95.1802 134.331C94.7488 134.29 84.4357 133.136 80.1831 138.269L80.4502 138.495Z" fill="#BEB8F2"/>
<path d="M82.5866 133.775L82.8948 133.919C85.093 129.302 82.1347 120.294 81.1485 117.325C81.0047 116.913 80.8815 116.542 80.8815 116.48L80.5322 116.522C80.5528 116.625 80.6144 116.851 80.8198 117.449C81.7854 120.376 84.7232 129.281 82.5866 133.775Z" fill="#BEB8F2"/>
</g>
</g>
<path d="M110.567 82.9633C112.067 86.4263 110.321 89.642 108.718 91.7858C108.349 91.7651 108.143 91.8476 107.773 91.8888C104.445 92.3835 102.925 91.8888 99.5763 91.8682C98.8572 91.8682 96.7412 91.2086 95.8989 90.8788L94.3375 90.2398C94.3375 90.2398 91.8928 81.912 96.4536 79.995C100.994 78.078 99.679 69.8739 99.5146 65.442C99.4119 62.7211 100.234 61.4431 100.357 60.433C101.672 49.776 98.6518 46.3954 101.199 43.2003C104.014 39.6549 108.492 42.7675 111.759 39.0777C115.436 34.9138 112.211 28.1733 116.566 24.9989C117.306 24.4629 118.107 23.927 119.298 23.659C122.257 22.9994 124.517 24.8339 126.735 22.5665C131.214 18.011 138.178 16.7742 142.061 22.113C145.882 27.3694 140.479 36.8721 127.865 43.8806C119.463 49.879 119.237 51.8579 119.648 56.7432C119.935 60.165 122.955 69.2349 117.881 72.3681C112.786 75.4807 108.862 79.0056 110.567 82.9633Z" fill="url(#paint1_linear_572_1481)"/>
<mask id="mask2_572_1481" style="mask-type:luminance" maskUnits="userSpaceOnUse" x="93" y="18" width="51" height="77">
<path d="M106.438 94.3418L94.5634 90.5283C94.5634 90.5283 91.8721 81.8708 96.4123 79.9743C100.953 78.0573 99.6377 69.8532 99.4734 65.4214C99.0214 53.3833 112.806 55.5064 113.546 40.0465C113.751 35.9239 112.663 27.9671 116.525 24.9782C120.921 21.5564 123.839 25.4523 126.694 22.5459C131.173 17.9903 138.137 16.7535 142.02 22.0924C145.841 27.3487 140.438 36.8515 127.824 43.86C119.422 49.8584 119.196 51.8373 119.606 56.7226C119.894 60.1444 122.914 69.2142 117.84 72.3475C112.765 75.5013 108.841 79.0055 110.547 82.9633C113.176 88.9823 106.438 94.3418 106.438 94.3418Z" fill="white"/>
</mask>
<g mask="url(#mask2_572_1481)">
<g opacity="0.5">
<path d="M101.302 92.1155L101.055 92.0743C101.302 90.7344 101.569 89.3739 101.836 88.0547C103.89 78.2428 106.869 69.008 110.67 60.5772C113.895 53.445 117.737 46.8076 122.133 40.8503C125.667 36.0475 129.55 31.6775 133.7 27.8022C136.617 25.1018 139.616 22.6695 142.636 20.6081C143.17 20.2577 143.725 19.9073 144.259 19.5775C144.978 19.1446 145.718 18.6911 146.396 18.1758L146.56 18.3613C145.882 18.8766 145.122 19.3301 144.403 19.763C143.869 20.0928 143.314 20.4226 142.78 20.7937C139.781 22.855 136.781 25.2667 133.884 27.9671C129.755 31.8217 125.872 36.1918 122.359 40.974C117.983 46.9313 114.142 53.5481 110.916 60.6597C107.116 69.0699 104.157 78.284 102.103 88.0753C101.815 89.4151 101.548 90.7756 101.302 92.1155Z" fill="#FCFDFE"/>
<path d="M117.347 48.4568L117.121 48.3331C122.031 39.7374 118.867 22.9169 118.846 22.752L119.093 22.7108C119.113 22.8963 122.277 39.7786 117.347 48.4568Z" fill="#FCFDFE"/>
<path d="M105.904 73.7285L105.678 73.646C108.266 67.4002 121.332 63.4425 121.456 63.4012L121.538 63.628C121.414 63.628 108.451 67.5857 105.904 73.7285Z" fill="#FCFDFE"/>
<path d="M104.774 77.3976L104.527 77.3358C105.41 73.0276 104.137 66.6169 100.952 59.2786C100.788 58.9076 100.788 58.9076 100.809 58.8663L101.055 58.9076L100.932 58.8869L101.055 58.8663C101.055 58.8869 101.117 59.0312 101.199 59.1961C104.383 66.5757 105.657 73.0276 104.774 77.3976Z" fill="#FCFDFE"/>
<path d="M101.795 89.6625L101.569 89.5388C103.972 85.2925 111.512 84.1176 111.594 84.1176L111.635 84.3443C111.574 84.3649 104.137 85.5193 101.795 89.6625Z" fill="#FCFDFE"/>
<path d="M100.932 92.1155C100.192 88.2196 98.2406 84.3649 94.9536 80.3247L95.1385 80.1804C98.4461 84.2618 100.398 88.1577 101.158 92.0743L100.932 92.1155Z" fill="#FCFDFE"/>
<path d="M131.481 30.2758L131.275 30.1521C134.295 25.5142 136.288 19.9692 136.946 18.1346C137.11 17.7017 137.172 17.5368 137.192 17.4956L137.418 17.6193C137.397 17.6605 137.295 17.9079 137.192 18.2377C136.514 20.0516 134.521 25.6378 131.481 30.2758Z" fill="#FCFDFE"/>
<path d="M125.359 37.0987L125.194 36.9132C129.303 33.5945 140.315 34.5427 140.787 34.5839L140.767 34.8107C140.643 34.8107 129.385 33.8419 125.359 37.0987Z" fill="#FCFDFE"/>
</g>
</g>
<path d="M98.2409 116.955C97.4397 116.645 99.4119 112.605 98.3026 106.565C98.0149 105.061 97.0699 96.733 91.0094 95.0633C89.8384 94.7335 88.6469 94.4243 87.4759 94.0945C87.0855 91.188 87.2499 88.364 91.0916 88.1785C97.0494 87.9105 99.2681 78.5521 98.4464 74.8623C97.4397 70.3068 95.3442 59.6291 104.548 59.0726C112.211 58.6191 117.326 59.8147 119.771 51.1365C122.216 42.4377 128.482 38.1501 136.761 40.6443C145.472 43.2828 155.189 33.8007 161.599 39.2633C172.774 48.766 157.079 65.4833 140.5 67.4828C123.921 69.4823 131.563 76.8206 130.392 84.1383C130.248 84.8185 129.961 85.8492 129.406 87.0035C125.955 94.1151 117.84 93.5585 110.814 98.382C101.24 104.937 99.5968 117.449 98.2409 116.955Z" fill="url(#paint2_linear_572_1481)"/>
<mask id="mask3_572_1481" style="mask-type:luminance" maskUnits="userSpaceOnUse" x="87" y="37" width="79" height="65">
<path d="M106.89 101.062L87.6606 96.3619C87.1264 93.4967 86.7977 88.3846 91.0914 88.1785C97.0492 87.9105 99.2679 78.5521 98.4462 74.8623C97.4395 70.3068 95.344 59.6291 104.548 59.0726C112.211 58.6191 117.326 59.8147 119.771 51.1365C122.216 42.4377 128.481 38.1501 136.761 40.6443C145.471 43.2828 155.189 33.8007 161.598 39.2633C172.774 48.766 157.079 65.4833 140.5 67.4828C123.921 69.4823 131.563 76.8206 130.392 84.1383C128.79 94.1151 115.272 88.7144 110.731 91.7034C107.177 94.0326 106.787 98.3408 106.89 101.062Z" fill="white"/>
</mask>
<g mask="url(#mask3_572_1481)">
<g opacity="0.5">
<path d="M98.508 95.9703L98.1177 95.7848C110.485 68.802 136.699 48.2094 166.488 42.046L166.591 42.4377C136.925 48.5804 110.834 69.0906 98.508 95.9703Z" fill="#FCFDFE"/>
<path d="M106.582 81.8708L106.171 81.7677C108.718 70.3686 100.46 59.0313 100.377 58.9076L100.727 58.6809C100.788 58.784 109.17 70.2862 106.582 81.8708Z" fill="#FCFDFE"/>
<path d="M100.912 91.0644L100.583 90.7964C108.616 82.0152 131.009 85.8698 131.235 85.9111L131.173 86.3233C130.968 86.2615 108.801 82.448 100.912 91.0644Z" fill="#FCFDFE"/>
<path d="M126.921 60.7217L126.571 60.4743C132.283 52.9917 129.406 38.6655 129.386 38.5212L129.797 38.4594C129.838 38.6036 132.734 53.0948 126.921 60.7217Z" fill="#FCFDFE"/>
<path d="M143.212 50.5387L143.068 50.1471C153.648 46.9314 167.454 53.4246 167.597 53.4864L167.412 53.8574C167.289 53.775 153.627 47.3643 143.212 50.5387Z" fill="#FCFDFE"/>
</g>
</g>
<path d="M97.2551 28.6062L0 37.5317C5.87558 41.1803 14.9766 48.4774 20.4412 63.2571C31.2268 92.3836 19.2497 119.49 32.1924 139.073C35.6438 144.288 43.0602 153.729 54.5442 156.037L147.424 143.34C117.018 134.496 108.76 117.758 107.178 103.494C105.596 89.1885 110.116 72.0589 104.692 49.0339C102.473 39.6137 99.4534 32.8319 97.2551 28.6062Z" fill="url(#paint3_linear_572_1481)"/>
<path d="M12.0181 12.734C40.5742 10.9407 69.1303 9.12673 97.6864 7.33337C101.528 10.6109 106.931 16.4032 110.444 26.4625C118.539 49.5905 109.109 72.4712 111.841 94.9603C113.587 109.307 120.757 127.261 146.437 139.279C115.765 143.298 85.1135 147.339 54.4414 151.358C48.1138 148.926 39.6497 143.855 34.7808 132.085C29.6037 119.593 33.2194 111.142 31.4527 71.8941C30.1995 44.2723 27.7342 33.3679 22.5777 24.6485C19.003 18.5882 14.9764 14.919 12.0181 12.734Z" fill="white"/>
<path d="M105.637 92.8372C105.658 93.0639 105.678 93.2906 105.699 93.5174C105.719 93.7235 105.555 93.9297 105.35 93.9503L38.3557 101.33C38.1298 101.35 37.9243 101.165 37.9243 100.938C37.9243 100.711 37.9243 100.485 37.9243 100.258C37.9243 100.052 38.0681 99.8869 38.2736 99.8663L105.206 92.4867C105.432 92.4661 105.617 92.631 105.637 92.8372Z" fill="#D8DEE8"/>
<path d="M105.37 85.6018C105.37 85.8286 105.37 86.0553 105.37 86.2821C105.37 86.4882 105.226 86.6531 105.021 86.6737L38.3762 93.7853C38.1503 93.8059 37.9448 93.6204 37.9448 93.3936C37.9448 93.1669 37.9448 92.9402 37.9448 92.7134C37.9448 92.5073 38.0886 92.3424 38.2941 92.3218L104.939 85.2102C105.165 85.1896 105.37 85.3751 105.37 85.6018Z" fill="#D8DEE8"/>
<path d="M106.603 100.011C106.644 100.237 106.685 100.464 106.726 100.691C106.767 100.918 106.624 101.124 106.377 101.165L38.2532 108.895C38.0272 108.915 37.8218 108.73 37.8218 108.503C37.8218 108.276 37.8218 108.05 37.8218 107.823C37.8218 107.617 37.9656 107.452 38.171 107.431L106.151 99.722C106.377 99.6601 106.562 99.8044 106.603 100.011Z" fill="#D8DEE8"/>
<path d="M105.617 78.3255C105.596 78.5522 105.596 78.7789 105.576 79.0263C105.555 79.2118 105.411 79.3767 105.227 79.3973L38.2943 86.3234C38.0683 86.344 37.8628 86.1791 37.8628 85.9317C37.8628 85.705 37.8628 85.4782 37.8423 85.2515C37.8423 85.0454 37.9861 84.8805 38.1915 84.8599L105.185 77.9132C105.432 77.8926 105.637 78.0781 105.617 78.3255Z" fill="#D8DEE8"/>
<path d="M114.882 120.851C115.026 121.057 115.17 121.283 115.313 121.49C115.478 121.737 115.334 122.067 115.046 122.108L41.2113 131.178C41.0469 131.198 40.8826 131.116 40.8004 130.951C40.6977 130.724 40.595 130.518 40.5128 130.291C40.4101 130.044 40.5539 129.776 40.821 129.735L114.512 120.686C114.656 120.644 114.8 120.727 114.882 120.851Z" fill="#D8DEE8"/>
<path d="M111.082 114.027C111.184 114.254 111.287 114.46 111.39 114.666C111.513 114.914 111.349 115.202 111.082 115.223L38.8901 123.881C38.6847 123.901 38.4998 123.757 38.4587 123.551C38.4176 123.324 38.3765 123.097 38.3354 122.871C38.2943 122.644 38.4587 122.438 38.6847 122.417L110.671 113.801C110.835 113.78 110.999 113.883 111.082 114.027Z" fill="#D8DEE8"/>
<path d="M108.37 107.081C108.431 107.308 108.514 107.514 108.575 107.74C108.657 107.967 108.493 108.235 108.247 108.256L38.2532 116.419C38.0273 116.439 37.8218 116.274 37.8218 116.048C37.8218 115.821 37.8218 115.594 37.8013 115.347C37.8013 115.141 37.9451 114.976 38.1505 114.955L107.938 106.813C108.144 106.772 108.308 106.895 108.37 107.081Z" fill="#D8DEE8"/>
<path d="M106.212 71.0078C106.192 71.2345 106.171 71.4612 106.151 71.7086C106.13 71.8941 105.986 72.0384 105.802 72.059L38.1092 78.8202C37.8832 78.8408 37.6778 78.6759 37.6778 78.4491C37.6778 78.2224 37.6572 77.9956 37.6572 77.7689C37.6572 77.5628 37.801 77.3772 38.0065 77.3566L105.781 70.5955C106.028 70.5543 106.233 70.7604 106.212 71.0078Z" fill="#D8DEE8"/>
<path d="M104.179 27.5137C104.343 27.4931 104.508 27.5962 104.569 27.7611C104.651 27.9878 104.734 28.2146 104.816 28.4413C104.898 28.6887 104.734 28.936 104.466 28.9566L33.3021 34.3985C33.1172 34.4192 32.9529 34.2955 32.8913 34.11C32.8296 33.8832 32.768 33.6565 32.7064 33.4503C32.6447 33.203 32.8091 32.9762 33.0556 32.9556L104.179 27.5137Z" fill="#D8DEE8"/>
<path d="M106.582 34.8314C106.624 35.0582 106.685 35.2849 106.726 35.5117C106.767 35.7384 106.603 35.9652 106.377 35.9858L34.9867 41.7369C34.7813 41.7575 34.5964 41.6132 34.5759 41.4071C34.5348 41.1803 34.4937 40.9536 34.4526 40.7268C34.4115 40.5001 34.5759 40.2733 34.8019 40.2733L106.192 34.5223C106.377 34.5016 106.541 34.6253 106.582 34.8314Z" fill="#D8DEE8"/>
<path d="M101.159 21.6802L30.7545 27.0396C30.5902 27.0603 30.4258 26.9572 30.3642 26.8129C29.563 24.9783 28.6796 23.2468 27.6935 21.5771C27.2004 20.732 26.6868 19.9281 26.1527 19.1242C25.9883 18.8768 26.1527 18.5264 26.4403 18.5058L95.7351 13.8472C95.8584 13.8472 95.9611 13.8884 96.0433 13.9708C98.0977 16.0734 99.9261 18.4439 101.467 21.103C101.611 21.3298 101.446 21.6596 101.159 21.6802Z" fill="#D8DEE8"/>
<path d="M106.911 63.7107C106.89 63.9374 106.87 64.1642 106.849 64.4115C106.829 64.597 106.685 64.7413 106.5 64.7619L37.8011 71.3582C37.5751 71.3788 37.3902 71.2139 37.3697 70.9871C37.3492 70.7604 37.3492 70.5337 37.3286 70.3069C37.3286 70.1008 37.4724 69.9153 37.6779 69.8946L106.5 63.2778C106.726 63.2572 106.932 63.4633 106.911 63.7107Z" fill="#D8DEE8"/>
<path d="M107.548 56.4135C107.527 56.6403 107.507 56.867 107.507 57.1144C107.486 57.2999 107.342 57.4648 107.158 57.4854L37.3903 63.9167C37.1643 63.9373 36.9794 63.7724 36.9588 63.5457C36.9383 63.3189 36.9383 63.0922 36.9178 62.8655C36.8972 62.6593 37.0616 62.4738 37.267 62.4532L107.096 56.0013C107.363 55.96 107.568 56.1662 107.548 56.4135Z" fill="#D8DEE8"/>
<path d="M107.856 49.1576C107.856 49.3844 107.856 49.6111 107.856 49.8585C107.856 50.0646 107.692 50.2295 107.507 50.2501L36.8766 56.5166C36.6506 56.5372 36.4657 56.3723 36.4452 56.1661C36.4247 55.9394 36.4041 55.7126 36.3836 55.4859C36.363 55.2798 36.5274 55.0736 36.7328 55.053L107.425 48.7866C107.651 48.7454 107.856 48.9103 107.856 49.1576Z" fill="#D8DEE8"/>
<path d="M107.61 41.9431C107.63 42.1698 107.651 42.3966 107.671 42.6233C107.692 42.8294 107.528 43.0149 107.322 43.0356L36.0961 49.0752C35.8907 49.0959 35.7058 48.9309 35.6647 48.7248C35.6441 48.4981 35.6031 48.2713 35.5825 48.0446C35.562 47.8178 35.7058 47.6323 35.9318 47.6117L107.178 41.572C107.404 41.572 107.589 41.7369 107.61 41.9431Z" fill="#D8DEE8"/>
<path opacity="0.3" d="M112.067 85.6225C91.6462 79.0262 54.5438 67.9569 50.5172 73.1721C47.867 76.5939 48.2779 79.6446 48.2779 79.6446C48.545 81.6647 49.7776 83.0252 50.3528 83.6642C67.733 102.731 75.0878 106.091 75.0878 106.091C78.5597 107.782 83.3054 109.616 89.1399 110.523C100.665 112.337 110.074 109.575 114.923 107.74C114.019 105.473 113.156 102.731 112.539 99.5776C111.471 94.012 111.635 89.1679 112.067 85.6225Z" fill="#9E9E9E"/>
<path d="M98.1178 55.1767C105.021 54.2079 110.609 59.4849 110.588 66.9468C110.567 74.4295 104.959 81.2731 98.0562 82.2419C91.1534 83.2107 85.5654 77.9337 85.586 70.4717C85.6065 63.0097 91.215 56.1455 98.1178 55.1767Z" fill="#321840"/>
<path d="M98.1383 42.2522C111.636 40.3558 122.565 50.6624 122.545 65.2772C122.524 79.892 111.554 93.2906 98.0562 95.2076C84.5588 97.1041 73.6294 86.7974 73.6499 72.1827C73.6705 57.5473 84.641 44.1486 98.1383 42.2522ZM98.0562 82.2625C104.959 81.2937 110.567 74.4295 110.588 66.9675C110.609 59.4849 105.021 54.2079 98.1178 55.1973C91.215 56.1662 85.6065 63.0304 85.586 70.513C85.5654 77.9544 91.1534 83.2314 98.0562 82.2625Z" fill="#783267"/>
<path d="M123.818 36.5011C102.083 24.6279 77.8409 34.3367 61.4879 50.5387C56.2697 55.7126 51.5857 61.4431 47.2304 67.3591C45.6074 69.5647 42.5464 72.43 43.4914 75.5426C43.9228 77.0061 45.2171 78.2017 46.121 79.356C48.6274 82.5099 51.2981 85.5606 54.1948 88.364C58.8377 92.8783 63.9532 96.4032 69.6028 99.4746C64.1175 96.4856 59.2486 92.4454 54.9138 87.9518C52.0993 85.0247 49.4902 80.4485 48.1343 76.5526C47.0249 73.3576 47.8262 72.3269 49.5519 69.9976C58.7556 57.506 69.6233 44.0662 83.9014 37.3669C97.3166 31.0592 113.135 30.6263 126.304 37.8203C125.462 37.3875 124.64 36.934 123.818 36.5011Z" fill="#9E9E9E"/>
<path d="M149.478 57.7946C150.649 59.0932 150.731 61.1958 149.683 62.9067C135.878 85.6225 120.1 101.082 98.2822 104.319C98.1384 104.339 98.0152 104.36 97.8713 104.381C76.218 107.452 60.5224 96.6712 46.5114 78.0574C45.4637 76.6557 45.5253 74.5119 46.6758 72.8629C61.3647 52.0641 77.2452 36.0064 98.4671 32.9969C98.878 32.935 99.2683 32.8938 99.6792 32.832C120.408 30.4408 134.049 40.6856 149.478 57.7946ZM98.0357 95.187C111.533 93.2906 122.504 79.892 122.524 65.2566C122.545 50.6418 111.636 40.3352 98.1179 42.2316C84.6205 44.128 73.65 57.5266 73.6295 72.162C73.6089 86.7768 84.5383 97.1041 98.0357 95.187Z" fill="white"/>
<path d="M116.299 33.8419L113.834 32.5021C116.69 33.2442 119.401 34.2748 122.052 35.5941L124.517 36.9339C121.887 35.6147 119.155 34.584 116.299 33.8419Z" fill="#A3A3A3"/>
<path d="M124.517 36.934L122.052 35.5941C122.648 35.8827 123.223 36.1919 123.798 36.5011L126.263 37.841C125.688 37.5111 125.113 37.2226 124.517 36.934Z" fill="#9E9E9E"/>
<path d="M94.0094 109.307C94.4203 108.771 95.0366 107.905 95.0572 107.431C95.0777 106.957 95.7351 107.596 95.2831 108.647C95.1393 108.957 95.1599 109.08 95.2421 109.183C95.4475 109.451 96.1665 108.874 96.6801 109.142C97.1732 109.41 97.3581 110.482 96.9267 111.018C96.598 111.41 96.1049 111.121 95.5297 111.389C95.0572 111.616 95.1804 112.172 94.9544 113.595C94.5025 113.574 93.4753 114.357 93.2904 113.924C92.633 112.296 93.5985 109.843 94.0094 109.307Z" fill="url(#paint4_linear_572_1481)"/>
<path d="M92.9 113.017C93.845 112.956 94.79 112.894 95.7145 112.811C97.9333 121.819 96.3514 130.559 91.3387 133.775C83.5114 138.805 68.9457 129.343 65.8025 119.036C64.4261 114.522 64.7342 107.988 67.5077 106.73C68.2678 106.38 69.4593 106.318 72.0479 107.782C79.7519 112.131 79.9573 120.335 83.8812 121.036C85.6069 121.345 88.4214 120.232 92.9 113.017Z" fill="url(#paint5_linear_572_1481)"/>
<path d="M71.3285 155.584C72.6844 153.316 70.9793 151.152 70.5889 146.864C70.1575 142.02 72.0065 141.216 73.8554 133.177C75.088 127.838 76.2591 122.706 74.8621 116.687C74.1841 113.801 73.0542 108.936 69.0276 106.566C66.9526 105.349 64.1176 105.473 58.5296 105.762C51.6268 106.133 48.1549 106.298 45.5869 107.658C45.2171 107.864 37.3693 112.131 36.8352 119.119C36.2805 126.21 43.9845 127.179 45.0117 136.64C45.4636 140.887 44.6419 147.421 44.1077 151.667C43.5941 155.749 43.2449 156.779 44.0461 158.016C45.9772 160.984 51.8939 160.139 63.7067 158.449C68.3291 157.789 70.3218 157.253 71.3285 155.584Z" fill="url(#paint6_linear_572_1481)"/>
<path opacity="0.3" d="M53.3526 135.135C52.8595 136.991 51.0516 138.351 49.7985 142.845C49.5314 143.814 47.6003 150.719 50.1066 152.409C51.5447 153.399 52.839 151.523 56.3314 151.296C62.3919 150.884 65.2886 155.996 69.2331 154.594C69.911 154.347 70.8355 153.832 71.7394 152.657C71.9243 153.729 71.8832 154.656 71.3285 155.604C70.3219 157.295 68.3291 157.81 63.6862 158.49C51.8734 160.18 45.9567 161.026 44.0256 158.057C43.2244 156.821 43.5736 155.79 44.0872 151.708C44.6214 147.462 45.4431 140.928 44.9912 136.681C43.964 127.22 36.26 126.251 36.8147 119.16C36.9585 117.264 37.657 115.573 38.5814 114.11C48.3604 118.047 54.9345 129.322 53.3526 135.135Z" fill="url(#paint7_linear_572_1481)"/>
<path d="M41.0059 149.091L42.9575 150.348C43.3068 149.936 44.1285 149.111 45.3817 148.843C46.8198 148.534 48.4633 148.988 48.4839 149.441C48.5044 149.812 47.5183 150.183 47.3539 150.245C46.1008 150.698 45.1763 150.327 44.6832 150.822C44.4983 151.008 44.2724 151.337 43.7793 151.647C43.6355 151.729 43.5122 151.791 43.43 151.832C42.5877 152.162 41.1702 150.698 41.0469 150.575L41.0059 149.091Z" fill="url(#paint8_linear_572_1481)"/>
<path d="M46.7786 123.365C48.1961 119.964 49.1822 114.749 46.9429 107.019C32.2129 112.832 24.7144 126.643 27.6316 137.588C30.0558 146.617 38.8486 151.008 40.8003 151.935C41.2523 150.884 41.7042 149.853 42.1767 148.802C39.8963 146.267 37.3489 142.515 37.6981 138.227C38.2117 132.27 43.923 130.229 46.7786 123.365Z" fill="url(#paint9_linear_572_1481)"/>
<path d="M58.16 98.7737C58.16 98.7737 58.0367 101.35 57.2355 103.288C56.5164 105.04 52.7158 106.133 51.9351 106.524C51.1545 106.916 53.3732 108.05 55.592 108.276C57.8107 108.503 64.1588 107.988 65.3093 107.143C66.4597 106.298 64.3848 106.359 62.8029 105.782C61.221 105.205 60.2965 102.092 60.5841 100.67C60.8718 99.2684 58.16 98.7737 58.16 98.7737Z" fill="url(#paint10_linear_572_1481)"/>
<path d="M61.6731 97.8461C62.8236 96.7124 62.9879 96.5681 63.1112 96.1764C63.6248 94.5892 62.3922 92.4454 60.7897 91.9095C60.7075 91.8889 59.6393 91.5384 59.2284 92.0125C58.8791 92.4042 59.3927 92.9607 59.1462 93.7234C58.9202 94.4449 58.3039 94.4861 57.1534 95.4343C56.2084 96.197 55.6332 96.6917 55.4894 97.372C55.2018 98.7737 56.8864 100.794 58.3861 100.732C58.9202 100.67 59.064 100.402 61.6731 97.8461Z" fill="url(#paint11_linear_572_1481)"/>
<path d="M58.5296 100.917C58.5296 100.917 59.7622 102.319 61.6317 101.845C63.2958 101.433 62.8849 97.5781 61.6522 96.9597C61.2414 96.7536 60.5018 96.7742 59.9471 97.0422C59.6184 97.2071 59.5157 97.372 58.9815 97.6193C58.4885 97.8461 58.3241 97.8255 58.1803 97.9904C58.016 98.1965 57.9338 98.6294 58.4679 99.6807C58.0776 99.4127 57.6873 99.3508 57.4202 99.5364C57.3791 99.557 57.2764 99.6601 57.2353 99.8043C57.0709 100.278 57.564 100.753 58.5296 100.917Z" fill="url(#paint12_linear_572_1481)"/>
<defs>
<linearGradient id="paint0_linear_572_1481" x1="153.572" y1="73.7741" x2="72.0053" y2="131.393" gradientUnits="userSpaceOnUse">
<stop stop-color="#FFC444"/>
<stop offset="0.9964" stop-color="#F36F56"/>
</linearGradient>
<linearGradient id="paint1_linear_572_1481" x1="132.982" y1="15.4843" x2="86.5157" y2="102.119" gradientUnits="userSpaceOnUse">
<stop stop-color="#AA80F9"/>
<stop offset="0.9964" stop-color="#6165D7"/>
</linearGradient>
<linearGradient id="paint2_linear_572_1481" x1="148.47" y1="40.4663" x2="84.761" y2="104.874" gradientUnits="userSpaceOnUse">
<stop stop-color="#FF9085"/>
<stop offset="1" stop-color="#FB6FBB"/>
</linearGradient>
<linearGradient id="paint3_linear_572_1481" x1="-10.4921" y1="92.3216" x2="151.266" y2="123.294" gradientUnits="userSpaceOnUse">
<stop stop-color="#FFC444"/>
<stop offset="0.9964" stop-color="#F36F56"/>
</linearGradient>
<linearGradient id="paint4_linear_572_1481" x1="97.3746" y1="107.636" x2="86.628" y2="120.44" gradientUnits="userSpaceOnUse">
<stop stop-color="#AB316D"/>
<stop offset="1" stop-color="#792D3D"/>
</linearGradient>
<linearGradient id="paint5_linear_572_1481" x1="93.0288" y1="120.28" x2="67.5422" y2="121.197" gradientUnits="userSpaceOnUse">
<stop offset="0.00359712" stop-color="#E38DDD"/>
<stop offset="1" stop-color="#9571F6"/>
</linearGradient>
<linearGradient id="paint6_linear_572_1481" x1="23.2382" y1="189.326" x2="64.5304" y2="118.834" gradientUnits="userSpaceOnUse">
<stop offset="0.00359712" stop-color="#E38DDD"/>
<stop offset="1" stop-color="#9571F6"/>
</linearGradient>
<linearGradient id="paint7_linear_572_1481" x1="23.2428" y1="189.329" x2="64.5357" y2="118.836" gradientUnits="userSpaceOnUse">
<stop offset="0.00359712" stop-color="#E38DDD"/>
<stop offset="1" stop-color="#9571F6"/>
</linearGradient>
<linearGradient id="paint8_linear_572_1481" x1="48.5516" y1="149.957" x2="41.0624" y2="150.556" gradientUnits="userSpaceOnUse">
<stop stop-color="#AB316D"/>
<stop offset="1" stop-color="#792D3D"/>
</linearGradient>
<linearGradient id="paint9_linear_572_1481" x1="9.49085" y1="181.273" x2="50.7834" y2="110.78" gradientUnits="userSpaceOnUse">
<stop offset="0.00359712" stop-color="#E38DDD"/>
<stop offset="1" stop-color="#9571F6"/>
</linearGradient>
<linearGradient id="paint10_linear_572_1481" x1="62.4153" y1="111.237" x2="54.0391" y2="100.85" gradientUnits="userSpaceOnUse">
<stop stop-color="#AB316D"/>
<stop offset="1" stop-color="#792D3D"/>
</linearGradient>
<linearGradient id="paint11_linear_572_1481" x1="60.3097" y1="108.438" x2="59.915" y2="103.586" gradientUnits="userSpaceOnUse">
<stop stop-color="#444B8C"/>
<stop offset="0.9964" stop-color="#26264F"/>
</linearGradient>
<linearGradient id="paint12_linear_572_1481" x1="67.3477" y1="102.319" x2="54.8975" y2="96.7962" gradientUnits="userSpaceOnUse">
<stop stop-color="#AB316D"/>
<stop offset="1" stop-color="#792D3D"/>
</linearGradient>
</defs>
</svg>
