<?xml version="1.0" encoding="utf-8"?>
<!-- Generator: Adobe Illustrator 25.3.1, SVG Export Plug-In . SVG Version: 6.00 Build 0)  -->
<svg version="1.1" id="Camada_1" shape-rendering="geometricPrecision" text-rendering="geometricPrecision"
	 xmlns="http://www.w3.org/2000/svg" xmlns:xlink="http://www.w3.org/1999/xlink" x="0px" y="0px" viewBox="0 0 117 49"
	 style="enable-background:new 0 0 117 49;" xml:space="preserve">
<style type="text/css">
	.st0{fill:#DDDDDD;}
	.st1{enable-background:new    ;}
</style>
<g>
	<g>
		<circle class="st0" cx="22" cy="23" r="22"/>
	</g>
</g>
<g>
	<path d="M22,23v13"/>
	<path d="M22,40.5c-2.5,0-4.5-2-4.5-4.5V23c0-2.5,2-4.5,4.5-4.5s4.5,2,4.5,4.5v13C26.5,38.5,24.5,40.5,22,40.5z"/>
</g>
<g>
	<g>
		<path class="st0" d="M4,43l3-6l4,3L4,43z"/>
		<path class="st0" d="M4,45c-0.5,0-1.1-0.2-1.5-0.6c-0.6-0.6-0.7-1.5-0.3-2.3l3-6c0.3-0.5,0.8-0.9,1.3-1.1c0.6-0.1,1.2,0,1.7,0.3
			l4,3c0.6,0.4,0.9,1.1,0.8,1.8s-0.5,1.3-1.2,1.6l-7,3C4.5,44.9,4.3,45,4,45z"/>
	</g>
</g>
<g>
	<g>
		<circle cx="22" cy="11" r="4.5"/>
	</g>
</g>
<g>
	<g>
		<g class="st1">
			<path class="st0" d="M52.8,18l-0.6-1.9h-2.9L48.8,18H47l2.8-7.9h2l2.8,7.9H52.8z M51.8,14.7c-0.5-1.7-0.8-2.7-0.9-2.9
				c-0.1-0.2-0.1-0.4-0.1-0.5c-0.1,0.5-0.5,1.6-1,3.4H51.8z"/>
			<path class="st0" d="M57.9,18.1c-1.9,0-2.8-1-2.8-3.1c0-1,0.3-1.8,0.8-2.3s1.2-0.8,2.2-0.8c0.7,0,1.3,0.1,1.9,0.4l-0.5,1.3
				c-0.3-0.1-0.5-0.2-0.7-0.3s-0.4-0.1-0.7-0.1c-0.9,0-1.3,0.6-1.3,1.8c0,1.2,0.4,1.8,1.3,1.8c0.3,0,0.6,0,0.9-0.1
				c0.3-0.1,0.5-0.2,0.8-0.4v1.4c-0.3,0.2-0.5,0.3-0.8,0.3C58.6,18.1,58.3,18.1,57.9,18.1z"/>
			<path class="st0" d="M63.8,18.1c-1,0-1.7-0.3-2.3-0.8C61,16.8,60.7,16,60.7,15c0-1,0.3-1.8,0.8-2.3c0.5-0.5,1.2-0.8,2.1-0.8
				c0.8,0,1.5,0.2,2,0.7s0.7,1.2,0.7,2v0.8h-3.9c0,0.5,0.2,0.8,0.4,1.1s0.6,0.4,1.1,0.4c0.4,0,0.7,0,1-0.1s0.7-0.2,1-0.4v1.3
				c-0.3,0.1-0.6,0.2-0.9,0.3C64.7,18.1,64.3,18.1,63.8,18.1z M63.6,13c-0.3,0-0.6,0.1-0.8,0.3c-0.2,0.2-0.3,0.5-0.3,0.9h2.3
				c0-0.4-0.1-0.7-0.3-0.9C64.2,13.2,63.9,13,63.6,13z"/>
			<path class="st0" d="M71.8,16.2c0,0.6-0.2,1.1-0.6,1.4c-0.4,0.3-1.1,0.5-1.9,0.5c-0.4,0-0.8,0-1.1-0.1c-0.3-0.1-0.6-0.1-0.9-0.3
				v-1.4c0.3,0.1,0.6,0.3,1,0.4c0.4,0.1,0.7,0.1,1,0.1c0.6,0,0.9-0.2,0.9-0.5c0-0.1,0-0.2-0.1-0.3c-0.1-0.1-0.2-0.2-0.4-0.3
				c-0.2-0.1-0.5-0.2-0.8-0.4c-0.5-0.2-0.8-0.4-1-0.5c-0.2-0.2-0.4-0.4-0.5-0.6s-0.1-0.5-0.1-0.8c0-0.5,0.2-0.9,0.6-1.2
				c0.4-0.3,1-0.4,1.8-0.4c0.7,0,1.4,0.2,2.1,0.5l-0.5,1.2c-0.3-0.1-0.6-0.2-0.8-0.3c-0.3-0.1-0.5-0.1-0.8-0.1
				c-0.5,0-0.7,0.1-0.7,0.4c0,0.1,0.1,0.3,0.2,0.4c0.2,0.1,0.5,0.3,1,0.5c0.5,0.2,0.8,0.4,1,0.5c0.2,0.2,0.4,0.4,0.5,0.6
				C71.7,15.7,71.8,15.9,71.8,16.2z"/>
			<path class="st0" d="M77.3,16.2c0,0.6-0.2,1.1-0.6,1.4s-1.1,0.5-1.9,0.5c-0.4,0-0.8,0-1.1-0.1c-0.3-0.1-0.6-0.1-0.9-0.3v-1.4
				c0.3,0.1,0.6,0.3,1,0.4c0.4,0.1,0.7,0.1,1,0.1c0.6,0,0.9-0.2,0.9-0.5c0-0.1,0-0.2-0.1-0.3c-0.1-0.1-0.2-0.2-0.4-0.3
				c-0.2-0.1-0.5-0.2-0.8-0.4c-0.5-0.2-0.8-0.4-1-0.5c-0.2-0.2-0.4-0.4-0.5-0.6c-0.1-0.2-0.1-0.5-0.1-0.8c0-0.5,0.2-0.9,0.6-1.2
				c0.4-0.3,1-0.4,1.8-0.4c0.7,0,1.4,0.2,2.1,0.5l-0.5,1.2c-0.3-0.1-0.6-0.2-0.8-0.3c-0.3-0.1-0.5-0.1-0.8-0.1
				c-0.5,0-0.7,0.1-0.7,0.4c0,0.1,0.1,0.3,0.2,0.4c0.2,0.1,0.5,0.3,1,0.5c0.5,0.2,0.8,0.4,1,0.5c0.2,0.2,0.4,0.4,0.5,0.6
				C77.2,15.7,77.3,15.9,77.3,16.2z"/>
			<path class="st0" d="M84,15c0,1-0.3,1.7-0.8,2.3s-1.2,0.8-2.2,0.8c-0.6,0-1.1-0.1-1.5-0.4c-0.4-0.3-0.8-0.6-1-1.1s-0.4-1-0.4-1.7
				c0-1,0.3-1.7,0.8-2.3c0.5-0.5,1.2-0.8,2.2-0.8c0.6,0,1.1,0.1,1.5,0.4c0.4,0.3,0.8,0.6,1,1.1S84,14.4,84,15z M79.8,15
				c0,0.6,0.1,1,0.3,1.3s0.5,0.5,1,0.5c0.4,0,0.8-0.2,0.9-0.5s0.3-0.8,0.3-1.4c0-0.6-0.1-1-0.3-1.3s-0.5-0.4-1-0.4
				c-0.4,0-0.8,0.1-0.9,0.4C79.9,13.9,79.8,14.4,79.8,15z"/>
			<path class="st0" d="M92,18l-0.3-0.8h0c-0.3,0.3-0.6,0.6-0.9,0.7c-0.3,0.1-0.7,0.2-1.1,0.2c-0.6,0-1-0.2-1.4-0.5
				c-0.3-0.3-0.5-0.8-0.5-1.4c0-0.6,0.2-1.1,0.7-1.4c0.4-0.3,1.1-0.5,2-0.5l1,0V14c0-0.6-0.3-0.9-0.9-0.9c-0.5,0-1,0.1-1.7,0.4
				l-0.5-1.1c0.7-0.4,1.5-0.5,2.3-0.5c0.8,0,1.4,0.2,1.9,0.5c0.4,0.4,0.6,0.9,0.6,1.6v4H92z M90.6,11.3c-0.2-0.2-0.6-0.4-1-0.8
				c-0.4-0.4-0.8-0.6-1-0.9V9.6h1.8c0.2,0.4,0.6,0.9,1.3,1.6v0.1H90.6z M91.5,15.2l-0.6,0c-0.5,0-0.8,0.1-1.1,0.3s-0.3,0.4-0.3,0.7
				c0,0.5,0.3,0.7,0.8,0.7c0.4,0,0.7-0.1,0.9-0.3s0.3-0.5,0.3-0.9V15.2z"/>
		</g>
		<g class="st1">
			<path class="st0" d="M48,31v-7.9h1.7V31H48z"/>
			<path class="st0" d="M57,31h-1.6v-3.5c0-0.4-0.1-0.8-0.2-1s-0.4-0.3-0.7-0.3c-0.5,0-0.8,0.2-1,0.5c-0.2,0.3-0.3,0.8-0.3,1.5V31
				h-1.6v-6h1.3l0.2,0.8h0.1c0.2-0.3,0.4-0.5,0.8-0.7c0.3-0.1,0.7-0.2,1.1-0.2c0.7,0,1.2,0.2,1.6,0.6s0.5,0.9,0.5,1.6V31z"/>
			<path class="st0" d="M62,26.2h-1.4V31H59v-4.8h-0.9v-0.8L59,25v-0.4c0-0.7,0.2-1.2,0.5-1.5c0.3-0.3,0.9-0.5,1.6-0.5
				c0.6,0,1.1,0.1,1.5,0.3L62.2,24c-0.3-0.1-0.6-0.2-0.9-0.2c-0.2,0-0.4,0.1-0.5,0.2c-0.1,0.1-0.2,0.3-0.2,0.5V25H62V26.2z"/>
			<path class="st0" d="M68.4,28c0,1-0.3,1.7-0.8,2.3s-1.2,0.8-2.2,0.8c-0.6,0-1.1-0.1-1.5-0.4c-0.4-0.3-0.8-0.6-1-1.1
				s-0.4-1-0.4-1.7c0-1,0.3-1.7,0.8-2.3c0.5-0.5,1.2-0.8,2.2-0.8c0.6,0,1.1,0.1,1.5,0.4c0.4,0.3,0.8,0.6,1,1.1S68.4,27.4,68.4,28z
				 M64.3,28c0,0.6,0.1,1,0.3,1.3s0.5,0.5,1,0.5c0.4,0,0.8-0.2,0.9-0.5c0.2-0.3,0.3-0.8,0.3-1.4c0-0.6-0.1-1-0.3-1.3s-0.5-0.4-1-0.4
				c-0.4,0-0.8,0.1-0.9,0.4C64.4,26.9,64.3,27.4,64.3,28z"/>
			<path class="st0" d="M73.2,24.9c0.2,0,0.4,0,0.6,0l-0.1,1.5c-0.1,0-0.3-0.1-0.5-0.1c-0.5,0-0.9,0.1-1.2,0.4
				c-0.3,0.3-0.4,0.6-0.4,1.1V31h-1.6v-6H71l0.2,1h0.1c0.2-0.3,0.4-0.6,0.8-0.8C72.4,25,72.8,24.9,73.2,24.9z"/>
			<path class="st0" d="M80.2,31h-1.6v-3.5c0-0.4-0.1-0.8-0.2-1s-0.4-0.3-0.7-0.3c-0.4,0-0.7,0.2-0.9,0.5c-0.2,0.3-0.3,0.8-0.3,1.5
				V31h-1.6v-6H76l0.2,0.8h0.1c0.2-0.3,0.4-0.5,0.7-0.6c0.3-0.2,0.7-0.2,1-0.2c0.9,0,1.5,0.3,1.8,0.9h0.1c0.2-0.3,0.4-0.5,0.7-0.7
				c0.3-0.2,0.7-0.2,1.1-0.2c0.7,0,1.2,0.2,1.5,0.5c0.3,0.3,0.5,0.9,0.5,1.7V31h-1.6v-3.5c0-0.4-0.1-0.8-0.2-1s-0.4-0.3-0.7-0.3
				c-0.4,0-0.7,0.1-0.9,0.4c-0.2,0.3-0.3,0.7-0.3,1.4V31z"/>
			<path class="st0" d="M89.4,31l-0.3-0.8h0c-0.3,0.3-0.6,0.6-0.9,0.7c-0.3,0.1-0.7,0.2-1.1,0.2c-0.6,0-1-0.2-1.4-0.5
				s-0.5-0.8-0.5-1.4c0-0.6,0.2-1.1,0.7-1.4c0.4-0.3,1.1-0.5,2-0.5l1,0V27c0-0.6-0.3-0.9-0.9-0.9c-0.5,0-1,0.1-1.7,0.4l-0.5-1.1
				c0.7-0.4,1.5-0.5,2.3-0.5c0.8,0,1.4,0.2,1.9,0.5c0.4,0.4,0.6,0.9,0.6,1.6v4H89.4z M88.9,28.2l-0.6,0c-0.5,0-0.8,0.1-1.1,0.3
				s-0.3,0.4-0.3,0.7c0,0.5,0.3,0.7,0.8,0.7c0.4,0,0.7-0.1,0.9-0.3c0.2-0.2,0.3-0.5,0.3-0.9V28.2z"/>
			<path class="st0" d="M94.7,31.1c-1.9,0-2.8-1-2.8-3.1c0-1,0.3-1.8,0.8-2.3c0.5-0.5,1.2-0.8,2.2-0.8c0.7,0,1.3,0.1,1.9,0.4
				l-0.5,1.3c-0.3-0.1-0.5-0.2-0.7-0.3s-0.4-0.1-0.7-0.1c-0.9,0-1.3,0.6-1.3,1.8c0,1.2,0.4,1.8,1.3,1.8c0.3,0,0.6,0,0.9-0.1
				c0.3-0.1,0.5-0.2,0.8-0.4v1.4c-0.3,0.2-0.5,0.3-0.8,0.3C95.4,31.1,95.1,31.1,94.7,31.1z M95.7,32.3c0,0.5-0.1,0.8-0.4,1
				c-0.3,0.2-0.7,0.3-1.3,0.3c-0.3,0-0.5,0-0.8-0.1v-0.9c0.1,0,0.2,0.1,0.4,0.1c0.2,0,0.3,0,0.4,0c0.3,0,0.4-0.1,0.4-0.3
				c0-0.3-0.3-0.5-0.9-0.6l0.4-0.8h1l-0.1,0.3c0.3,0.1,0.5,0.2,0.6,0.4S95.7,32.1,95.7,32.3z"/>
			<path class="st0" d="M101.7,31l-0.3-0.8h0c-0.3,0.3-0.6,0.6-0.9,0.7c-0.3,0.1-0.7,0.2-1.1,0.2c-0.6,0-1-0.2-1.4-0.5
				c-0.3-0.3-0.5-0.8-0.5-1.4c0-0.6,0.2-1.1,0.7-1.4c0.4-0.3,1.1-0.5,2-0.5l1,0V27c0-0.6-0.3-0.9-0.9-0.9c-0.5,0-1,0.1-1.7,0.4
				l-0.5-1.1c0.7-0.4,1.5-0.5,2.3-0.5c0.8,0,1.4,0.2,1.9,0.5c0.4,0.4,0.6,0.9,0.6,1.6v4H101.7z M99.5,23.8c-0.1,0-0.2,0-0.3,0.1
				C99.1,24,99,24.2,99,24.3h-0.8c0-0.5,0.2-0.9,0.4-1.2c0.3-0.3,0.6-0.4,1-0.4c0.1,0,0.3,0,0.4,0.1c0.1,0.1,0.3,0.1,0.4,0.2
				c0.1,0.1,0.3,0.1,0.4,0.2c0.1,0.1,0.3,0.1,0.4,0.1c0.1,0,0.2,0,0.3-0.1c0.1-0.1,0.2-0.2,0.2-0.4h0.8c0,0.5-0.2,0.9-0.4,1.2
				c-0.3,0.3-0.6,0.4-1,0.4c-0.1,0-0.3,0-0.4-0.1c-0.1-0.1-0.3-0.1-0.4-0.2c-0.1-0.1-0.3-0.1-0.4-0.2C99.8,23.8,99.7,23.8,99.5,23.8
				z M101.2,28.2l-0.6,0c-0.5,0-0.8,0.1-1.1,0.3s-0.3,0.4-0.3,0.7c0,0.5,0.3,0.7,0.8,0.7c0.4,0,0.7-0.1,0.9-0.3s0.3-0.5,0.3-0.9
				V28.2z"/>
			<path class="st0" d="M110,28c0,1-0.3,1.7-0.8,2.3s-1.2,0.8-2.2,0.8c-0.6,0-1.1-0.1-1.5-0.4c-0.4-0.3-0.8-0.6-1-1.1
				s-0.4-1-0.4-1.7c0-1,0.3-1.7,0.8-2.3c0.5-0.5,1.2-0.8,2.2-0.8c0.6,0,1.1,0.1,1.5,0.4c0.4,0.3,0.8,0.6,1,1.1S110,27.4,110,28z
				 M105.8,28c0,0.6,0.1,1,0.3,1.3s0.5,0.5,1,0.5c0.4,0,0.8-0.2,0.9-0.5c0.2-0.3,0.3-0.8,0.3-1.4c0-0.6-0.1-1-0.3-1.3
				s-0.5-0.4-1-0.4c-0.4,0-0.8,0.1-0.9,0.4C105.9,26.9,105.8,27.4,105.8,28z"/>
		</g>
	</g>
</g>
</svg>
