<?xml version="1.0" encoding="utf-8"?>
<!-- Generator: Adobe Illustrator 25.3.1, SVG Export Plug-In . SVG Version: 6.00 Build 0)  -->
<svg version="1.1" id="Camada_1" xmlns="http://www.w3.org/2000/svg" xmlns:xlink="http://www.w3.org/1999/xlink" x="0px" y="0px"
	 viewBox="0 0 496.2 143.8" style="enable-background:new 0 0 496.2 143.8;" xml:space="preserve">
<style type="text/css">
	.st0{fill:#FFFFFF;}
	.st1{fill:#A8A8A9;}
	.st2{fill:#393939;}
</style>
<path class="st0" d="M220.5,54.5c14.5,0,21.4,6,21.4,16c0,5.6-3.7,10.4-9.2,12.4c6.7,1.8,12.5,7.9,12.5,15.5
	c0,9.8-7.1,17.2-23.4,17.2c-8,0-14.4-0.2-21.7-0.3l-0.6-0.6V55.4l0.6-0.6C207.3,54.7,214,54.5,220.5,54.5z M209.8,79.9h10.3
	c9.2,0,11.3-4.9,11.3-9.1c0-4.3-1.9-9.1-11.1-9.1c-2.8,0-7.4,0-10.5-0.1C209.8,61.6,209.8,79.9,209.8,79.9z M209.8,87.1v21.4
	c4.1,0,8.3-0.1,11.9-0.1c10.6,0,12.8-6.1,12.8-10.6c0-4.4-2.9-10.7-13.4-10.7C221.1,87.1,209.8,87.1,209.8,87.1z M284.5,88.7
	c3.2,1.1,5.6,4.1,7,7.5l4.3,10.3c1,2.4,2.2,4.8,4.4,6.4c-1.4,1.9-4.4,2.9-7.1,2.9c-3.9,0-5.3-1.9-6.9-5.7l-4.9-11.9
	c-1.7-4.1-3.8-7.2-9.9-7.2h-8.1v24.3c-1.6,0.3-3.5,0.4-5.2,0.4c-1.6,0-3.6-0.1-5.1-0.4V55.4l0.6-0.6c7.4-0.1,14.5-0.3,21.1-0.3
	c13.7,0,22.3,6.4,22.3,18.1C297.1,80.7,291.7,86.7,284.5,88.7L284.5,88.7z M263.4,83.4c3.8-0.1,8.2-0.2,10.9-0.2
	c9.6,0,12-5.5,12-10.6c0-5.4-2.4-10.7-12-10.7c-2.9,0-7.6,0-10.9-0.1C263.4,61.8,263.4,83.4,263.4,83.4z M320.8,100.5l-5.2,14.8
	c-1.3,0.3-2.9,0.4-4.5,0.4c-1.9,0-3.7-0.3-5.1-0.6l-0.3-0.4L327.9,55c1.6-0.3,4.3-0.4,6-0.4s4.4,0.1,5.9,0.4l22,59.7
	c-1.5,0.9-3.8,1.2-6.1,1.2c-3.2,0-4.9-1.1-6.2-4.9l-3.6-10.3c-1.7,0-5.1,0.1-5.9,0.1h-13.5C325.7,100.6,322.5,100.5,320.8,100.5
	L320.8,100.5z M323.4,92.9c1.6,0,4.2-0.1,5-0.1h9.8c0.7,0,3.3,0.1,4.9,0.1l-4.5-12.8c-1.8-5.1-3.8-11.3-5.2-16H333
	c-1,4-2.8,9.5-3.8,12.8L323.4,92.9z M371.1,102.5c5.7,3.4,13,6,19.8,6c8,0,12.5-3.4,12.6-8.3c0-4.2-3.2-7.3-8.9-9.5L383,86.2
	c-8.3-3.2-13.5-7.8-13.5-15.3c0-9.6,9-17.1,22.2-17.1c8.2,0,15.7,2.3,20.8,4.6c-0.1,2.7-1.7,5.6-3.8,7.3c-5.1-2.3-11.8-4.2-16.8-4.2
	c-7.3,0-11.8,3.6-11.8,8.3c0,3.9,3.3,6.1,8.2,8l11.4,4.4c8.5,3.2,14.7,8.6,14.7,16.4c0,10.2-7.9,17.8-24.1,17.8
	c-8.2,0-17-2.5-23.6-6.6C367,107,368.9,104.1,371.1,102.5L371.1,102.5z M426.6,54.9c1.5-0.3,3.6-0.4,5.2-0.4s3.6,0.1,5.2,0.4v60.3
	c-1.6,0.3-3.6,0.4-5.2,0.4s-3.7-0.1-5.2-0.4V54.9z M492.9,107.1c0,1-0.1,2.6-0.3,3.7c-0.6,3-3,4.5-6.8,4.5h-25.7
	c-3.5,0-6.1-2-6.1-5.8V55l0.7-0.5h3.9c4.3,0,5.9,1.9,5.9,6v46.9c3-0.3,6.1-0.4,8.7-0.4L492.9,107.1L492.9,107.1z M209.6,34.6h-4.1
	v10.1c-0.9,0.2-2.1,0.2-3,0.2c-0.8,0-2,0-3-0.2V14.5l0.3-0.3c3.6-0.1,6.5-0.2,9.7-0.2c6.1,0,10.6,3.3,10.6,10.3
	C220.1,31.1,215.7,34.6,209.6,34.6z M205.5,30c1.5,0,3.1-0.1,3.7-0.1c4,0,4.8-3.2,4.8-5.6s-0.8-5.6-4.8-5.6h-3.7
	C205.5,18.7,205.5,30,205.5,30z M227.2,37.8l-2.1,6.9c-0.8,0.2-1.6,0.2-2.6,0.2c-0.9,0-2.1-0.1-2.8-0.4l-0.2-0.3l9.9-30
	c1-0.1,2.4-0.2,3.5-0.2c0.9,0,2.5,0.1,3.4,0.3l9.7,30c-0.8,0.5-2.3,0.8-3.4,0.8c-1.9,0-2.8-0.7-3.6-3.2l-1.2-4.1
	C237.8,37.8,227.2,37.8,227.2,37.8z M228.7,33.1h7.7l-1.3-4.5c-0.8-2.5-1.7-6-2.4-8.6h-0.3c-0.4,2.3-1.4,5.5-2,7.5L228.7,33.1z
	 M252.3,22.5v-3.3h-7.6c-0.2-0.9-0.2-1.8-0.2-2.5s0-1.6,0.2-2.5H266c0.2,0.6,0.3,1.6,0.3,2.3c0,2-1,2.7-3.2,2.7h-4.8v25.5
	c-1,0.2-2.1,0.2-3,0.2c-0.8,0-2,0-3-0.2L252.3,22.5L252.3,22.5z M285.4,31.6c1.6,0.6,2.7,2.1,3.3,3.9l1.6,4.5
	c0.4,1.2,1.1,2.4,2.1,3.2c-0.8,1.1-2.4,1.8-4,1.8c-2.2,0-2.9-1.2-3.8-3.5l-1.9-5.3c-0.7-1.8-1.6-3.2-4.1-3.2H276v11.7
	c-1,0.2-2.1,0.2-3,0.2c-0.8,0-2,0-2.9-0.2V14.5l0.3-0.3c3.6-0.1,6.9-0.2,10.2-0.2c6.2,0,10.5,3.1,10.5,9.4
	C291,27.7,288.3,30.6,285.4,31.6z M276,28.4c1.6-0.1,3.2-0.1,4.1-0.1c3.9,0,4.8-2.4,4.8-4.8c0-2.5-0.9-4.8-4.8-4.8H276
	C276,18.7,276,28.4,276,28.4z M297.3,14.3c0.9-0.2,2.2-0.2,3-0.2s2,0,3,0.2v30.4c-1,0.2-2.1,0.2-3,0.2c-0.8,0-2.1,0-3-0.2V14.3z
	 M315.4,37.8l-2.1,6.9c-0.8,0.2-1.6,0.2-2.6,0.2c-0.9,0-2.1-0.1-2.8-0.4l-0.2-0.3l9.9-30c1-0.1,2.4-0.2,3.5-0.2
	c0.9,0,2.5,0.1,3.4,0.3l9.8,30c-0.8,0.5-2.3,0.8-3.4,0.8c-1.9,0-2.8-0.7-3.6-3.2l-1.2-4.1L315.4,37.8L315.4,37.8z M316.9,33.1h7.7
	l-1.3-4.5c-0.8-2.5-1.7-6-2.4-8.6h-0.3c-0.4,2.3-1.4,5.5-2,7.5L316.9,33.1L316.9,33.1z M353.1,37.8l-2.1,6.9
	c-0.8,0.2-1.6,0.2-2.6,0.2c-0.9,0-2.1-0.1-2.8-0.4l-0.2-0.3l9.9-30c1-0.1,2.4-0.2,3.5-0.2c0.9,0,2.5,0.1,3.4,0.3l9.7,30
	c-0.8,0.5-2.3,0.8-3.4,0.8c-1.9,0-2.8-0.7-3.6-3.2l-1.2-4.1C363.7,37.8,353.1,37.8,353.1,37.8z M354.5,33.1h7.7l-1.3-4.5
	c-0.8-2.5-1.7-6-2.4-8.6h-0.3c-0.4,2.3-1.4,5.5-2,7.5L354.5,33.1L354.5,33.1z M377.7,14.3c1.3-0.2,3-0.3,4-0.3
	c1.1,0,2.5,0.1,3.8,0.3l3.4,12.3c0.3,1.2,1.4,5.8,1.7,7.6h0.3c0.3-1.8,1.4-6.4,1.7-7.6l3.4-12.3c1.3-0.2,2.8-0.3,3.8-0.3
	c1.1,0,2.7,0.1,4.1,0.3l2.4,30.3c-0.8,0.2-2,0.3-3,0.3c-0.9,0-1.8,0-2.6-0.2l-0.8-14.3c-0.2-2.8-0.4-6.9-0.4-9.7h-0.3L394,40.1
	c-0.9,0.1-2.2,0.2-3.1,0.2c-0.8,0-2.1-0.1-3-0.2l-5.2-19.4h-0.3c0,2.8-0.2,6.9-0.4,9.7l-1,14.3c-0.8,0.1-1.7,0.2-2.7,0.2
	c-0.9,0-2.1-0.1-3-0.3L377.7,14.3L377.7,14.3z M417.4,37.8l-2.1,6.9c-0.8,0.2-1.6,0.2-2.6,0.2c-0.9,0-2.1-0.1-2.8-0.4l-0.2-0.3
	l9.9-30c1-0.1,2.4-0.2,3.5-0.2c0.9,0,2.5,0.1,3.4,0.3l9.7,30c-0.8,0.5-2.3,0.8-3.4,0.8c-1.9,0-2.8-0.7-3.6-3.2l-1.2-4.1
	C428,37.8,417.4,37.8,417.4,37.8z M418.9,33.1h7.7l-1.3-4.5c-0.8-2.5-1.7-6-2.4-8.6h-0.3c-0.4,2.3-1.4,5.5-2,7.5L418.9,33.1
	L418.9,33.1z M459.4,42.7c-2,1.6-5.6,2.2-8,2.2c-3.7,0-6.6-0.1-10.5-0.2l-0.3-0.3v-30l0.3-0.3c3.8-0.1,6.8-0.2,10.5-0.2
	c2.4,0,6,0.6,8,2.2c4.1,3.3,4.9,8,4.9,13.2C464.2,34.7,463.5,39.4,459.4,42.7z M451.4,18.8h-4.9v21.5h4.9c5.8,0,6.7-5.8,6.7-10.7
	C458.1,24.6,457.2,18.8,451.4,18.8z M474,37.8l-2.1,6.9c-0.8,0.2-1.6,0.2-2.6,0.2c-0.9,0-2.1-0.1-2.8-0.4l-0.2-0.3l9.9-30
	c1-0.1,2.4-0.2,3.5-0.2c0.9,0,2.5,0.1,3.4,0.3l9.8,30c-0.8,0.5-2.3,0.8-3.4,0.8c-1.9,0-2.8-0.7-3.6-3.2l-1.2-4.1
	C484.7,37.8,474,37.8,474,37.8z M475.5,33.1h7.7l-1.3-4.5c-0.8-2.5-1.7-6-2.4-8.6h-0.3c-0.4,2.3-1.4,5.5-2,7.5L475.5,33.1
	L475.5,33.1z M238.2,3.9c0.9,0.5,2.1,1.9,2.4,3.2l-7.4,4.4c-0.7-0.3-1.4-1.3-1.6-2L238.2,3.9z"/>
<g>
	<path class="st0" d="M206.9,133.7h3.4c1.5,0,2.3,0.7,2.3,2.2v5.7c-1.9,0.6-3.8,0.9-5.9,0.9c-1,0-2-0.2-2.8-0.5s-1.5-0.8-2-1.5
		c-0.5-0.6-0.9-1.4-1.2-2.4c-0.3-0.9-0.4-2-0.4-3.2c0-1.3,0.2-2.5,0.6-3.4s0.9-1.8,1.5-2.4c0.6-0.6,1.4-1.1,2.2-1.5
		c0.8-0.3,1.7-0.5,2.6-0.5c1.9,0,3.6,0.5,5.3,1.6c0,0.2-0.1,0.5-0.2,0.7c-0.1,0.2-0.2,0.5-0.3,0.7s-0.3,0.4-0.5,0.6
		c-0.2,0.2-0.4,0.3-0.6,0.5c-1.2-0.8-2.4-1.2-3.6-1.2c-2.4,0-3.5,1.6-3.5,4.9c0,3.3,1.2,4.9,3.6,4.9h1c0.3,0,0.6-0.1,0.9-0.1v-1.4
		v-0.9v-0.6h-1.1c-0.6,0-1-0.1-1.3-0.4c-0.2-0.2-0.4-0.6-0.4-1.1C206.6,134.7,206.7,134.2,206.9,133.7z M224.2,141.1
		c-1.5-1.3-2.3-3.4-2.3-6.3c0-1.3,0.1-2.4,0.4-3.3c0.3-1,0.7-1.8,1.3-2.4c0.6-0.6,1.2-1.1,2-1.5c0.8-0.3,1.7-0.5,2.7-0.5
		s1.9,0.2,2.7,0.5s1.5,0.8,2,1.5c0.6,0.7,1,1.5,1.3,2.4c0.3,1,0.4,2.1,0.4,3.3c0,1.3-0.1,2.4-0.4,3.3c-0.3,1-0.7,1.8-1.3,2.4
		c-0.6,0.6-1.2,1.1-2,1.5c-0.8,0.3-1.7,0.5-2.7,0.5C226.6,142.4,225.3,142,224.2,141.1L224.2,141.1z M225.9,138.1
		c0.4,1.1,1.2,1.7,2.4,1.7c0.6,0,1.1-0.1,1.4-0.4c0.4-0.3,0.7-0.7,0.9-1.1c0.2-0.5,0.3-1,0.4-1.5c0.1-0.6,0.1-1.1,0.1-1.7
		c0-0.5,0-1.1-0.1-1.7c0-0.6-0.1-1.2-0.3-1.7s-0.4-1-0.8-1.4c-0.4-0.4-0.9-0.6-1.6-0.6c-0.7,0-1.2,0.2-1.6,0.5
		c-0.4,0.4-0.6,0.8-0.8,1.3s-0.3,1.1-0.3,1.7c0,0.6-0.1,1.1-0.1,1.5c0,0.7,0,1.3,0.1,1.8C225.6,137,225.7,137.5,225.9,138.1
		L225.9,138.1z M249.6,139.2l2.8-11.9c0.3-0.1,0.8-0.1,1.3-0.1c0.8,0,1.3,0.1,1.8,0.2l0.1,0.2l-4,14.5c-0.8,0.1-1.6,0.1-2.5,0.1
		c-0.8,0-1.4-0.1-1.8-0.3c-0.4-0.2-0.6-0.6-0.8-1.2l-3.6-13.1c0.8-0.3,1.4-0.5,1.9-0.5c0.6,0,1.1,0.1,1.3,0.4
		c0.3,0.3,0.5,0.7,0.7,1.3l1.7,6.2c0.3,1,0.5,2.3,0.8,3.9C249.4,139.1,249.4,139.2,249.6,139.2z M268.3,137.7v1.6h6.6
		c0,0.5,0,0.9-0.1,1.2c-0.2,1.1-0.9,1.7-2.2,1.7h-5.8c-0.6,0-1.1-0.2-1.5-0.5c-0.4-0.4-0.5-0.9-0.5-1.5v-12.7l0.2-0.2h9.3
		c0.1,0.4,0.1,0.9,0.1,1.4s-0.1,1-0.3,1.5h-5.9v3.1h4.8c0.1,0.4,0.2,0.9,0.2,1.4s-0.1,1-0.2,1.4h-4.8L268.3,137.7L268.3,137.7z
		 M295.3,131.9c0,0.5-0.1,0.9-0.2,1.4c-0.1,0.4-0.3,0.8-0.6,1.1c-0.2,0.3-0.5,0.6-0.8,0.9c-0.3,0.3-0.7,0.4-1,0.6
		c0.8,0.3,1.3,0.9,1.7,2l0.6,1.8c0.2,0.7,0.6,1.3,1.1,1.6c-0.2,0.3-0.5,0.5-1,0.7c-0.4,0.2-0.9,0.3-1.4,0.3s-0.9-0.1-1.2-0.4
		c-0.3-0.3-0.6-0.8-0.8-1.5l-0.8-2.3c-0.2-0.4-0.4-0.8-0.6-1c-0.3-0.2-0.7-0.3-1.2-0.3h-0.9v5.4c-0.5,0.1-1,0.1-1.7,0.1
		s-1.3,0-1.7-0.1v-14.7l0.2-0.2c1.3,0,2.3,0,3.2-0.1h2c0.8,0,1.5,0.1,2.2,0.3c0.6,0.2,1.2,0.5,1.7,0.9s0.8,0.9,1.1,1.5
		C295.2,130.4,295.3,131.1,295.3,131.9L295.3,131.9z M288.2,129.8v4.3h1.7c0.5,0,0.8-0.1,1.1-0.3c0.3-0.2,0.5-0.4,0.6-0.6
		c0.1-0.3,0.2-0.7,0.2-1.2c0-1.4-0.7-2.1-2-2.1h-0.9C288.6,129.8,288.4,129.8,288.2,129.8L288.2,129.8z M317.1,127.2l0.2,0.2V142
		c-0.6,0.1-1.3,0.2-2,0.2s-1.5,0-2.1-0.1l-3.4-7.7c-0.4-0.9-0.8-1.9-1.2-3.1h-0.1c0.2,2.1,0.3,4.3,0.3,6.5v4.3
		c-0.4,0.1-1,0.1-1.6,0.1s-1.2,0-1.6-0.1v-14.7c0.5-0.1,1.2-0.2,2-0.2s1.5,0,2.1,0.1l3.4,7.7c0.6,1.4,1.1,2.5,1.3,3.3h0.1
		c-0.2-2-0.3-4.1-0.3-6.4v-2.6c0-0.8,0.2-1.3,0.5-1.6c0.3-0.3,0.8-0.5,1.5-0.5L317.1,127.2L317.1,127.2z M329.4,141.1
		c-1.5-1.3-2.3-3.4-2.3-6.3c0-1.3,0.1-2.4,0.4-3.3c0.3-1,0.7-1.8,1.3-2.4c0.6-0.6,1.2-1.1,2-1.5c0.8-0.3,1.7-0.5,2.7-0.5
		s1.9,0.2,2.7,0.5c0.8,0.3,1.5,0.8,2,1.5c0.6,0.7,1,1.5,1.3,2.4c0.3,1,0.4,2.1,0.4,3.3c0,1.3-0.1,2.4-0.4,3.3
		c-0.3,1-0.7,1.8-1.3,2.4c-0.6,0.6-1.2,1.1-2,1.5c-0.8,0.3-1.7,0.5-2.7,0.5C331.9,142.4,330.5,142,329.4,141.1z M331.1,138.1
		c0.4,1.1,1.2,1.7,2.4,1.7c0.6,0,1.1-0.1,1.4-0.4c0.4-0.3,0.7-0.7,0.9-1.1c0.2-0.5,0.3-1,0.4-1.5c0.1-0.6,0.1-1.1,0.1-1.7
		c0-0.5,0-1.1-0.1-1.7c0-0.6-0.1-1.2-0.3-1.7c-0.2-0.5-0.4-1-0.8-1.4s-0.9-0.6-1.6-0.6s-1.2,0.2-1.6,0.5c-0.4,0.4-0.6,0.8-0.8,1.3
		c-0.2,0.5-0.3,1.1-0.3,1.7c0,0.6-0.1,1.1-0.1,1.5c0,0.7,0,1.3,0.1,1.8S331,137.5,331.1,138.1L331.1,138.1z M365.4,130.3v3.1h4.7
		c0.1,0.4,0.2,0.9,0.2,1.4s-0.1,1-0.2,1.4h-4.7v6c-0.5,0.1-1,0.1-1.7,0.1s-1.3,0-1.7-0.1v-14.7l0.2-0.1h9.3c0.1,0.4,0.1,0.8,0.1,1.4
		s-0.1,0.9-0.4,1.2s-0.8,0.4-1.4,0.4L365.4,130.3L365.4,130.3z M384.4,137.7v1.6h6.6c0,0.5,0,0.9-0.1,1.2c-0.2,1.1-0.9,1.7-2.2,1.7
		H383c-0.6,0-1.1-0.2-1.5-0.5c-0.4-0.4-0.5-0.9-0.5-1.5v-12.7l0.2-0.2h9.3c0.1,0.4,0.1,0.9,0.1,1.4s-0.1,1-0.3,1.5h-5.9v3.1h4.8
		c0.1,0.4,0.2,0.9,0.2,1.4s-0.1,1-0.2,1.4h-4.8L384.4,137.7L384.4,137.7z M410.4,141.2c-0.5,0.4-1.1,0.6-1.8,0.8
		c-0.8,0.2-1.6,0.3-2.5,0.3h-1.9c-0.8,0-1.9,0-3.2-0.1l-0.2-0.2v-14.6l0.2-0.2c0.8,0,1.7,0,2.6-0.1h2.8c1.2,0,2.3,0.2,3.1,0.6
		c0.8,0.4,1.5,0.9,2,1.6s0.8,1.5,1,2.4s0.3,1.9,0.3,3c0,1.4-0.2,2.7-0.5,3.7C412,139.5,411.3,140.4,410.4,141.2z M406.4,139.5
		c1.9,0,2.9-1.6,2.9-4.8s-1-4.8-2.9-4.8h-2.1v9.7h0.9C405.5,139.5,405.9,139.5,406.4,139.5L406.4,139.5z M426.1,137.7v1.6h6.6
		c0,0.5,0,0.9-0.1,1.2c-0.2,1.1-0.9,1.7-2.2,1.7h-5.8c-0.6,0-1.1-0.2-1.5-0.5c-0.4-0.4-0.5-0.9-0.5-1.5v-12.7l0.2-0.2h9.3
		c0.1,0.4,0.1,0.9,0.1,1.4s-0.1,1-0.3,1.5H426v3.1h4.8c0.1,0.4,0.2,0.9,0.2,1.4s-0.1,1-0.2,1.4H426v1.6H426.1z M453.1,131.9
		c0,0.5-0.1,0.9-0.2,1.4s-0.3,0.8-0.6,1.1c-0.2,0.3-0.5,0.6-0.8,0.9c-0.3,0.3-0.7,0.4-1,0.6c0.8,0.3,1.3,0.9,1.7,2l0.6,1.8
		c0.2,0.7,0.6,1.3,1.1,1.6c-0.2,0.3-0.5,0.5-1,0.7c-0.4,0.2-0.9,0.3-1.4,0.3s-0.9-0.1-1.2-0.4c-0.3-0.3-0.6-0.8-0.8-1.5l-0.8-2.3
		c-0.2-0.4-0.4-0.8-0.6-1c-0.3-0.2-0.7-0.3-1.2-0.3H446v5.4c-0.5,0.1-1,0.1-1.7,0.1s-1.3,0-1.7-0.1v-14.7l0.2-0.2
		c1.3,0,2.3,0,3.2-0.1h2c0.8,0,1.5,0.1,2.2,0.3c0.6,0.2,1.2,0.5,1.7,0.9s0.8,0.9,1.1,1.5C453,130.4,453.1,131.1,453.1,131.9
		L453.1,131.9z M445.9,129.8v4.3h1.7c0.5,0,0.8-0.1,1.1-0.3c0.3-0.2,0.5-0.4,0.6-0.6c0.1-0.3,0.2-0.7,0.2-1.2c0-1.4-0.7-2.1-2-2.1
		h-0.9C446.4,129.8,446.1,129.8,445.9,129.8L445.9,129.8z M466.8,139h-0.9l-0.9,3.1c-0.3,0.1-0.8,0.1-1.4,0.1
		c-0.7,0-1.3-0.1-1.7-0.2l-0.1-0.2l4.8-14.5c0.6-0.1,1.2-0.1,2-0.1c0.9,0,1.5,0.1,2,0.2l4.7,14.5c-0.5,0.3-1.1,0.4-1.7,0.4
		c-0.8,0-1.3-0.1-1.6-0.4c-0.3-0.3-0.6-0.8-0.8-1.5l-0.4-1.4L466.8,139L466.8,139z M466.8,136.3h3.3l-0.4-1.3
		c-0.3-1.2-0.7-2.7-1.2-4.5h-0.1c-0.1,0.6-0.5,2-1,4.1L466.8,136.3L466.8,136.3z M489.9,139.2h3.8c0,0.6,0,1.1-0.1,1.5
		s-0.3,0.8-0.7,1.1c-0.4,0.3-0.9,0.4-1.5,0.4h-4.9c-0.6,0-1.1-0.2-1.5-0.5c-0.4-0.4-0.5-0.9-0.5-1.5v-12.8l0.2-0.2h1.3
		c1.3,0,2,0.7,2,2.2v9.9C488.5,139.2,489.2,139.2,489.9,139.2L489.9,139.2z"/>
</g>
<path class="st1" d="M0.7,14v69.8l72.1-58.2l109.1,48.1V14H0.7z"/>
<path class="st2" d="M0.7,83.8v49.4c0,0,5.8-5,16.5-12.2C22.4,89.1,50,64.8,83.3,64.8c15.1,0,29,5,40.2,13.4
	c17.9-3.3,37.4-5.1,58.3-4.5l-109-48.1L0.7,83.8z"/>
<path class="st0" d="M83.3,64.8c-33.3,0-60.9,24.3-66,56.2c19.9-13.2,57-33.7,106.3-42.8C112.4,69.8,98.4,64.8,83.3,64.8z"/>
<path class="st1" d="M140.2,96.5C79.3,100,37.4,119.4,16.4,131.8C6,137.9,0.7,142.3,0.7,142.3h181.1V96.6
	C167.1,95.7,153.3,95.7,140.2,96.5L140.2,96.5z"/>
</svg>
